SplineFontDB: 3.0
FontName: GraftOutline
FullName: Graft Outline
FamilyName: Graft
Weight: Normal
Copyright: (C) Copyright 1997-2016 Terrence Curran - grilledcheese.com
Version: 2016-01-29
ItalicAngle: 0
UnderlinePosition: -113
UnderlineWidth: 20
Ascent: 800
Descent: 200
InvalidEm: 0
sfntRevision: 0x00010000
LayerCount: 2
Layer: 0 0 "Back" 1
Layer: 1 0 "Fore" 0
XUID: [1021 270 -1463357204 6475235]
UniqueID: 4331078
FSType: 4
OS2Version: 3
OS2_WeightWidthSlopeOnly: 0
OS2_UseTypoMetrics: 1
CreationTime: 1454098976
ModificationTime: 1454086741
PfmFamily: 81
TTFWeight: 400
TTFWidth: 5
LineGap: 0
VLineGap: 0
Panose: 0 0 0 0 0 0 0 0 0 0
OS2TypoAscent: 830
OS2TypoAOffset: 0
OS2TypoDescent: -477
OS2TypoDOffset: 0
OS2TypoLinegap: 0
OS2WinAscent: 1000
OS2WinAOffset: 0
OS2WinDescent: 0
OS2WinDOffset: 0
HheadAscent: 830
HheadAOffset: 0
HheadDescent: -477
HheadDOffset: 0
OS2SubXSize: 650
OS2SubYSize: 600
OS2SubXOff: 0
OS2SubYOff: 75
OS2SupXSize: 650
OS2SupYSize: 600
OS2SupXOff: 0
OS2SupYOff: 350
OS2StrikeYSize: 20
OS2StrikeYPos: 300
OS2CapHeight: 0
OS2XHeight: 0
OS2Vendor: 'gril'
OS2CodePages: 00000001.00000000
OS2UnicodeRanges: 00000000.00000000.00000000.00000000
Lookup: 258 0 0 "'kern' Horizontal Kerning in Latin lookup 0" { "'kern' Horizontal Kerning in Latin lookup 0 subtable"  } ['kern' ('latn' <'dflt' > ) ]
MarkAttachClasses: 1
DEI: 91125

StartChar: A
Encoding: 65 65 1
Width: 1038
Flags: HW
HStem: -205 35<618 670.5> -49 36<219 267.5> 248 36<832 867 832 876.5> 770 35<585.5 605 584.5 633>
VStem: 5 40 353 35<86.5 125.5> 469 26 469 97<377 428.5> 663 35<755.5 763.5> 956 42<89.5 134.5 89.5 144.5>
LayerCount: 2
Back
Fore
SplineSet
648 -205 m 0xfdc0
 588 -205 531 -187 477 -150 c 0
 421 -112 387 -67 374 -16 c 1
 340 -38 295 -49 240 -49 c 0
 179 -49 127 -38 84 -14 c 0
 64 -3 46 19 29 50 c 0
 13 82 5 112 5 139 c 0
 5 196 28 249 75 298 c 0
 117.648148148 342.462962963 162.766460905 364.694444444 211.102086826 364.694444444 c 0
 216.034293553 364.694444444 221 364.462962963 226 364 c 1
 253 465 275 536 291 575 c 0
 325 659 367 717 416 749 c 0
 423 758 450 769 496 783 c 0
 542 798 575 805 594 805 c 0
 616 805 637 802 657 795 c 0
 684 786 698 772 698 755 c 0
 698 739 690 724 673 712 c 0
 658 701 643 692 628 682 c 1
 656 641 679 585 697 514 c 0
 712 453 720 394 722 335 c 1
 726 334 l 2
 740 334 747 334 748 333 c 0
 756 332 763 330 769 326 c 0
 782 318 788 302 788 279 c 1
 807 282 824 284 840 284 c 0
 894 284 934 266 962 231 c 0
 986 201 998 160 998 109 c 0
 998 70 991 30 977 -10 c 0
 963 -50 945 -83 924 -108 c 0
 899 -137 857 -161 796 -180 c 0
 743 -197 693 -205 648 -205 c 0xfdc0
837 248 m 0
 794 248 744 233 686 204 c 0
 684 203 680 207 675 214 c 0
 670 221 668 226 668 228 c 0
 668 231 681 239 706 251 c 0
 732 264 751 271 762 274 c 1
 763 295 753 307 730 309 c 0
 699 312 671 302 648 277 c 1
 635 292 629 301 629 304 c 0
 646 317 666 327 691 333 c 1
 690 374 678 436 654 517 c 0
 629 602 606 659 584 688 c 0
 586 691 596 698 614 711 c 0
 647 735 663 751 663 760 c 0
 663 767 648 770 618 770 c 0
 553 770 494 755 442 726 c 0
 420 713 399 694 381 667 c 0
 375 659 362 634 339 593 c 0
 332 580 318 543 297 482 c 0
 276 419 264 378 263 361 c 1
 287 351 299 342 299 335 c 0
 299 333 297 330 292 325 c 0
 288 320 284 318 281 318 c 0
 280 318 274 320 262 325 c 0
 250 330 239 333 229 333 c 0
 197 333 162 320 125 294 c 0
 73 258 46 207 45 141 c 0
 44 92 66 53 110 24 c 0
 148 -1 193 -13 245 -13 c 0
 296 -13 335 -2 363 21 c 1
 356 51 353 76 353 97 c 0
 353 154 369 209 401 261 c 0
 437 320 487 363 550 391 c 0
 552 392 554 392 555 392 c 0
 562 392 566 388 566 379 c 0
 566 375 565 373 563 372 c 0
 517 346 477 308 443 258 c 0
 406 205 388 153 388 102 c 0
 388 27 413 -38 464 -91 c 0
 515 -144 578 -170 653 -170 c 0
 855 -170 956 -82 956 93 c 0
 956 196 916 248 837 248 c 0
495 381 m 0
 492 376 487 373 481 373 c 0
 473 373 469 379 469 390 c 0
 469 467 474 520 483 547 c 0
 486 547 491 547 496 546 c 0
 501 546 504 546 507 546 c 1
 505 509 501 454 495 381 c 0
EndSplineSet
Validated: 524321
EndChar

StartChar: B
Encoding: 66 66 2
Width: 838
Flags: W
HStem: -225 41 -142 37<113.5 116.5> 573 234<436.5 461.5 405 463.5> 723 41<148 161.5> 768 37 770 37<405 461.5 405 467.5>
VStem: 50 46<-116 -71.5> 142 42<279.5 312 271.5 336> 257 44<402.5 412> 703 41<499.5 562>
LayerCount: 2
Back
Fore
SplineSet
819 50 m 1xd7c0
 818 49 l 1
 817 -14 781 -76 711 -138 c 0
 639 -202 568 -231 499 -225 c 0
 429 -219 353 -188 270 -131 c 0
 263 -126 255 -121 246 -116 c 1
 179 -133 131 -142 102 -142 c 0
 67 -142 50 -129 50 -103 c 0
 50 -84 58 -56 74 -18 c 0
 87 13 100 54 113 106 c 0
 128 162 137 208 140 245 c 0
 141 258 142 272 142 287 c 0
 142 385 125 459 92 511 c 0
 40 591 16 643 18 666 c 0
 20 695 37 719 70 738 c 0
 99 755 129 764 161 764 c 0
 196 764 215 753 218 732 c 1
 276 782 355 807 455 807 c 0
 468 807 482 806 496 805 c 0xdbc0
 569 799 629 771 675 718 c 0
 721 666 744 605 744 534 c 0
 744 465 721 401 676 342 c 1
 759 295 808 232 822 154 c 0
 829 117 828 83 819 50 c 1xd7c0
783 94 m 0
 784 155 759 214 710 269 c 0
 684 298 641 315 582 320 c 0
 527 325 484 323 455 315 c 0
 417 300 379 286 342 271 c 1
 342 274 342 277 342 280 c 2
 342 280 341 278 340 275 c 0
 339 272 338 271 337 272 c 0
 317 285 300 301 286 320 c 0
 267 346 257 374 257 403 c 0
 257 421 261 440 269 459 c 0
 283 493 293 516 301 528 c 0
 312 545 330 563 354 580 c 0
 365 588 385 602 413 623 c 0
 416 625 428 620 451 609 c 0
 474 598 485 588 483 581 c 0
 482 576 472 573 455 573 c 0xd7c0
 418 573 377 548 334 496 c 0
 312 470 301 440 301 406 c 0
 301 399 302 393 303 386 c 0
 305 371 311 357 320 343 c 0
 330 329 341 321 353 319 c 1
 378 335 423 347 489 353 c 0
 540 358 588 359 633 357 c 1
 680 407 703 465 703 532 c 0
 703 592 685 644 649 689 c 0
 611 736 562 763 503 768 c 0xdbc0
 489 769 475 770 460 770 c 0xe3c0
 345 770 254 731 187 653 c 1
 186 667 184 686 179 709 c 0
 175 718 167 723 156 723 c 0
 140 723 123 716 103 702 c 0
 94 696 84 690 75 684 c 0
 62 675 56 667 55 661 c 0
 54 649 62 631 79 607 c 0
 103 574 125 528 146 471 c 0
 171 402 184 340 184 284 c 0
 184 259 181 237 176 216 c 0
 168 185 161 153 154 122 c 0
 146 88 136 57 125 27 c 0
 105 -27 96 -63 96 -80 c 0
 96 -97 105 -105 122 -105 c 0
 144 -105 171 -99 203 -86 c 1
 192 -69 184 -56 179 -47 c 0
 176 -44 175 -39 177 -34 c 0
 179 -29 183 -26 189 -26 c 0
 196 -26 205 -31 215 -40 c 0
 260 -83 303 -115 344 -135 c 0
 401 -163 454 -179 504 -184 c 0
 547 -188 594 -173 644 -140 c 0
 735 -80 780 -17 781 48 c 0
 781 58 783 73 783 94 c 0
516 13 m 0
 510 -10 502 -39 492 -74 c 1
 445 -46 l 1
 470 -5 482 25 482 46 c 0
 482 54 480 64 476 77 c 0
 472 93 470 103 469 108 c 0
 481 129 488 140 490 143 c 0
 493 146 504 152 524 163 c 0
 531 163 534 141 534 96 c 0
 534 85 528 57 516 13 c 0
EndSplineSet
Validated: 2097185
EndChar

StartChar: C
Encoding: 67 67 3
Width: 844
Flags: W
HStem: -191 35<378.5 429 378.5 449> 321 41<397.5 429> 778 34
VStem: 17 40<198.5 295.5> 189 32<341.5 360.5> 612 37<608.5 638> 759 30 759 32<214.5 232.5>
LayerCount: 2
Back
Fore
SplineSet
153 -94 m 0xfd
 63 -6 17 111 17 258 c 0
 17 333 31 403 58 468 c 0
 99 567 150 646 211 704 c 0
 286 776 371 812 467 812 c 0
 509 812 550 794 588 756 c 0
 629 716 649 671 649 620 c 0
 649 597 643 568 630 533 c 0
 618 500 605 474 591 454 c 1
 596 455 602 455 609 455 c 0
 654 455 692 440 724 410 c 0
 768 369 791 306 791 221 c 0
 791 208 790 194 789 180 c 0xfe
 780 65 736 -28 656 -97 c 0
 583 -160 498 -191 400 -191 c 0
 301 -191 219 -158 153 -94 c 0xfd
604 419 m 1
 607 419 593 417 563 412 c 1
 511 351 457 321 401 321 c 0
 394 321 388 322 381 323 c 1
 375 307 370 292 367 278 c 1
 383 263 391 245 391 222 c 0
 391 198 387 180 379 169 c 0
 376 165 371 163 364 163 c 0
 353 163 349 169 350 181 c 0
 354 220 351 241 340 244 c 0
 330 247 317 241 300 226 c 0
 283 211 271 205 264 208 c 0
 242 209 224 228 208 267 c 0
 196 298 189 324 189 345 c 0
 189 376 197 409 214 442 c 0
 253 521 307 597 378 671 c 0
 381 674 386 673 394 670 c 0
 402 667 406 662 406 655 c 0
 406 650 400 641 387 627 c 0
 367 606 345 573 319 528 c 0
 308 509 302 487 302 464 c 0
 302 432 312 407 331 389 c 0
 351 371 378 362 411 362 c 0
 460 362 507 393 551 456 c 0
 592 514 612 569 612 620 c 0
 612 656 597 691 569 726 c 0
 539 763 507 781 473 778 c 0
 346 767 242 706 164 594 c 0
 92 492 57 374 57 241 c 0
 57 156 77 82 118 20 c 0
 170 -60 221 -110 272 -131 c 0
 312 -147 355 -156 402 -156 c 0
 456 -156 507 -145 555 -122 c 0
 604 -99 644 -66 675 -24 c 0
 693 0 711 38 730 89 c 0
 749 141 759 180 759 207 c 0
 759 258 746 305 721 346 c 0
 692 395 653 419 604 419 c 1
337 336 m 0
 292 358 268 402 266 468 c 1
 236 425 221 386 221 350 c 0
 221 333 225 314 231 291 c 0
 239 262 249 248 262 248 c 1
 262 249 263 250 264 251 c 0
 280 270 305 282 339 289 c 1
 342 297 346 310 352 327 c 2
 353 330 l 1
 347 332 342 334 337 336 c 0
EndSplineSet
Validated: 2097185
EndChar

StartChar: D
Encoding: 68 68 4
Width: 803
Flags: W
HStem: -134 30<91.5 172> -113 47<359.5 408.5> 722 34 773 36
VStem: 9 54 41 39<-75.5 -68 -75.5 -62.5> 140 43 142 41<279.5 311 264 336> 184 65<-37 75>
LayerCount: 2
Back
Fore
SplineSet
426 252 m 0x7a80
 412 209 393 161 374 106 c 1
 327 134 l 1
 347 167 366 215 383 280 c 0
 390 305 397 338 405 377 c 0
 415 425 418 453 416 462 c 0
 413 470 410 483 406 502 c 1
 418 523 425 534 428 537 c 0
 431 540 442 546 462 557 c 0
 469 557 472 535 472 490 c 0
 472 483 465 445 452 378 c 0
 439 311 432 268 426 252 c 0x7a80
214 83 m 1
 214 80 218 78 226 78 c 0
 231 78 237 78 242 78 c 0
 246 78 248 77 249 75 c 0
 249 55 249 35 249 15 c 0
 250 -22 254 -41 260 -42 c 0
 284 -58 328 -66 391 -66 c 0
 462 -66 516 -55 553 -33 c 0
 576 -19 603 66 636 221 c 0
 647 271 664 368 690 513 c 0
 694 537 676 586 635 660 c 0
 623 682 600 706 563 731 c 0
 527 756 500 770 481 772 c 0
 433 777 381 767 325 745 c 0
 264 721 214 687 175 643 c 1
 174 655 173 667 172 679 c 0
 170 696 167 707 162 713 c 0
 158 719 153 722 146 722 c 0
 135 722 121 715 103 702 c 0
 78 683 65 665 63 648 c 0
 63 643 70 632 86 615 c 0
 114 585 137 536 156 467 c 0
 174 403 183 341 183 281 c 0
 183 247 180 219 173 197 c 0
 157 143 141 95 125 53 c 0
 117 32 108 11 99 -10 c 0
 86 -42 80 -63 80 -73 c 0xb680
 80 -78 82 -82 86 -84 c 0
 117 -98 144 -104 167 -104 c 0
 177 -104 186 -103 194 -100 c 2
 213 -80 l 1
 199 -70 l 2
 189 -60 184 -46 184 -28 c 0
 184 -3 194 34 214 83 c 1
248 -112 m 0
 193 -127 149 -134 117 -134 c 0
 66 -134 41 -115 41 -76 c 0
 41 -49 56 0 87 73 c 0
 119 150 137 207 140 245 c 0
 141 258 142 272 142 287 c 0x7980
 142 385 125 460 92 511 c 0
 75 530 58 550 41 569 c 0
 18 595 7 617 9 634 c 0xb580
 12 666 34 695 77 722 c 0
 120 749 157 760 190 755 c 0
 207 753 216 746 218 733 c 1
 271 784 337 809 417 809 c 0
 436 809 455 808 475 805 c 0
 546 795 608 761 661 705 c 0
 715 650 739 594 733 537 c 0
 725 463 709 362 684 233 c 0
 649 55 616 -44 587 -64 c 1
 514 -97 443 -113 374 -113 c 0
 337 -113 303 -108 270 -99 c 1
 267 -103 259 -107 248 -112 c 0
EndSplineSet
Validated: 2097185
EndChar

StartChar: E
Encoding: 69 69 5
Width: 892
Flags: W
HStem: -200 32<527 584.5 512.5 597> -139 31<182 196.5> 333 34<582.5 641.5 582.5 643.5> 494 27<561.5 583.5> 531 28<469 476.5 469 480> 770 30<488.5 525>
VStem: 11 38<550.5 571.5 550.5 581> 120 28 186 29<252 261.5> 264 275 511 28<425.5 442> 607 27 807 37
LayerCount: 2
Back
Fore
SplineSet
606 367 m 0xffb8
 677 367 733 345 774 300 c 0
 811 260 833 204 842 135 c 0
 844 119 845 105 844 92 c 0
 849 29 820 -35 759 -101 c 0
 698 -167 632 -200 562 -200 c 0
 492 -200 405 -175 302 -124 c 0
 294 -120 284 -116 273 -111 c 1
 238 -130 208 -139 185 -139 c 0
 136 -139 115 -98 120 -15 c 0
 122 14 133 58 155 118 c 0
 175 175 186 217 186 244 c 0
 186 279 176 315 156 351 c 0
 145 371 124 402 92 443 c 0
 75 461 58 479 42 497 c 0
 21 521 11 542 11 559 c 0
 11 603 63 653 167 709 c 0
 258 758 328 785 377 790 c 0
 448 797 486 800 491 800 c 0
 586 800 634 755 634 664 c 0
 634 649 628 619 617 574 c 0
 604 521 590 494 577 494 c 0
 563 494 547 496 528 501 c 1
 535 474 539 452 539 433 c 0
 539 402 521 376 484 355 c 1
 518 362 559 367 606 367 c 0xffb8
368 520 m 1
 359 520 347 522 330 525 c 1
 329 511 329 502 330 499 c 1
 339 504 351 511 368 520 c 1
230 -83 m 0
 227 -80 226 -77 226 -74 c 0
 226 -64 232 -59 244 -59 c 0
 247 -59 249 -59 250 -60 c 0
 256 -64 270 -73 292 -86 c 0
 386 -141 473 -168 552 -168 c 0
 617 -168 675 -142 726 -89 c 0
 777 -36 804 23 807 88 c 0
 810 153 796 209 762 256 c 0
 725 307 675 333 612 333 c 0
 545 333 492 325 453 309 c 0
 422 296 379 267 324 222 c 1
 319 224 315 226 311 228 c 0
 305 231 302 234 302 237 c 0
 302 242 311 253 330 271 c 0
 349 290 359 307 359 322 c 1
 348 329 343 336 345 345 c 1
 358 344 377 347 402 353 c 0
 433 360 459 371 478 384 c 0
 500 399 511 416 511 435 c 0
 511 449 507 467 501 490 c 0
 493 517 485 531 475 531 c 0
 455 531 422 519 377 493 c 0
 338 471 307 450 286 431 c 1
 279 432 271 437 264 446 c 1xffd8
 270 451 279 459 292 470 c 1
 297 483 302 513 307 558 c 1
 316 557 334 553 359 548 c 0
 381 543 399 541 412 541 c 0
 413 541 421 544 438 550 c 0
 455 556 466 559 472 559 c 0
 481 559 495 550 513 532 c 0
 514 531 514 530 515 528 c 0
 522 530 531 529 542 526 c 0
 554 523 561 521 562 521 c 0
 573 521 585 544 595 590 c 0
 604 629 608 658 607 677 c 0
 604 739 564 770 486 770 c 0
 467 770 417 763 335 750 c 0
 299 744 244 719 171 674 c 0
 90 625 49 586 49 557 c 0
 49 544 58 527 78 505 c 0
 100 481 133 446 172 392 c 0
 203 349 215 303 215 258 c 0
 215 246 214 234 212 222 c 0
 207 189 199 155 188 118 c 0
 177 81 167 45 156 9 c 0
 151 -10 148 -27 148 -43 c 0
 148 -86 165 -108 199 -108 c 0
 213 -108 229 -104 248 -95 c 1
 239 -90 233 -86 230 -83 c 0
EndSplineSet
Validated: 2097185
EndChar

StartChar: F
Encoding: 70 70 6
Width: 669
Flags: W
HStem: -210 40<174.5 198.5 174.5 199> 762 34<422.5 455 364 462.5>
VStem: 0 28<423 467 423 488.5> 97 32 103 28<149 175.5> 431 30<-20 48.5> 431 34<34 34 34 48.5> 451 29<283 291.5 282.5 302.5> 573 35<593.5 627.5>
LayerCount: 2
Back
Fore
SplineSet
143 110 m 1xe980
 140 111 l 2
 115 119 103 138 103 160 c 0
 103 164 104 168 104 173 c 0
 105 185 108 203 113 226 c 1
 38 289 0 367 0 458 c 0
 0 519 7 567 22 603 c 0
 38 642 68 678 110 711 c 0
 182 768 291 796 437 796 c 0
 473 796 502 793 524 789 c 0
 549 784 570 759 587 712 c 0
 601 674 608 641 608 614 c 0
 608 495 580 413 523 369 c 1
 506 367 481 370 450 377 c 1
 470 330 480 299 480 284 c 0
 480 281 479 278 478 277 c 0
 451 245 416 220 372 201 c 1
 437 132 468 76 465 34 c 2xf480
 461 -20 l 1xf280
 492 -35 508 -49 508 -63 c 0
 508 -72 505 -83 499 -95 c 1
 465 -118 416 -142 352 -167 c 0
 279 -195 221 -210 177 -210 c 0
 162 -210 150 -208 140 -205 c 0
 130 -202 120 -180 110 -140 c 0
 101 -105 97 -81 97 -66 c 0
 97 -41 102 -11 111 25 c 0
 120 61 131 89 143 110 c 1xe980
257 463 m 1
 251 436 249 421 250 417 c 1
 268 430 282 440 292 445 c 1
 288 446 276 452 257 463 c 1
523 755 m 0
 504 760 478 762 447 762 c 0
 398 762 348 756 297 745 c 0
 239 732 191 715 153 691 c 0
 105 661 71 624 52 580 c 0
 36 543 28 496 28 438 c 0
 28 408 40 373 65 333 c 0
 87 297 112 268 139 246 c 1
 150 247 155 243 155 236 c 0
 155 235 151 226 143 210 c 0
 135 195 131 181 131 170 c 0xf180
 131 155 138 144 153 136 c 0
 168 129 175 123 175 119 c 0
 175 118 175 116 174 115 c 0
 165 100 156 76 147 41 c 0
 134 -6 128 -49 129 -89 c 0xf480
 130 -133 138 -159 155 -166 c 0
 161 -169 169 -170 180 -170 c 0
 217 -170 268 -159 334 -137 c 0
 400 -114 445 -92 470 -69 c 1
 468 -68 461 -64 449 -57 c 1
 445 -70 439 -80 431 -87 c 1
 417 -72 l 1
 426 -35 431 -4 431 21 c 0
 431 76 385 151 293 244 c 1
 308 257 l 1
 316 250 328 240 344 227 c 1
 360 230 382 238 409 253 c 0
 437 268 451 279 451 287 c 0xe980
 451 318 441 348 421 378 c 0
 401 409 377 428 349 437 c 1
 324 434 298 422 272 401 c 0
 262 393 241 373 210 342 c 1
 197 356 l 1
 200 371 210 385 227 396 c 1
 224 405 223 413 223 421 c 0
 223 422 228 446 237 491 c 1
 260 495 l 1
 269 485 281 478 295 473 c 0
 316 466 329 461 332 459 c 0
 337 460 343 460 348 460 c 0
 375 460 403 443 432 409 c 0
 435 408 444 407 460 403 c 0
 479 399 492 396 497 397 c 0
 519 400 538 431 554 489 c 0
 567 536 573 576 573 611 c 0
 573 644 567 675 556 705 c 0
 545 735 534 752 523 755 c 0
EndSplineSet
Validated: 2097185
EndChar

StartChar: G
Encoding: 71 71 7
Width: 999
Flags: W
HStem: -389 37 240 26<565 572.5> 253 39<362.5 394.5 362.5 394.5> 673 32<632 661.5 619 677.5>
VStem: 31 35<-66 -6.5> 346 42<446.5 469.5 431 473.5> 625 32<520 528.5> 831 32<-48.5 -29.5 -91.5 -22.5> 871 35<505 526 496.5 534> 921 32<636 644.5 626.5 648.5>
LayerCount: 2
Back
Fore
SplineSet
530 250 m 1xdfc0
 539 259 544 263 544 263 c 2
 549 266 556 267 565 266 c 1
 558 279 l 1
 530 274 505 273 484 275 c 1
 501 268 517 260 530 250 c 1xdfc0
351 417 m 0
 348 428 346 440 346 453 c 0
 346 494 361 536 390 578 c 0
 418 618 449 647 485 664 c 0
 541 691 594 705 644 705 c 0
 679 705 716 699 753 686 c 1
 782 725 808 745 833 745 c 0
 852 745 877 731 907 704 c 0
 938 677 953 654 953 635 c 0
 953 618 946 608 932 603 c 0
 918 598 909 593 905 588 c 0
 902 583 899 575 897 563 c 1
 903 549 906 534 906 518 c 0
 906 475 889 433 857 391 c 0
 836 364 803 331 758 293 c 0
 739 277 729 267 727 263 c 0
 726 262 731 254 742 237 c 0
 764 202 787 169 809 134 c 0
 837 90 851 54 856 27 c 0
 860 4 863 -19 863 -40 c 0
 863 -143 812 -228 710 -297 c 0
 620 -358 521 -389 414 -389 c 0
 362 -389 307 -374 250 -344 c 0
 197 -316 153 -282 118 -242 c 0
 60 -175 31 -104 31 -28 c 0
 31 15 41 58 62 102 c 0
 82 144 109 180 141 209 c 0
 169 234 205 254 250 269 c 0
 295 284 340 292 385 292 c 0xbfc0
 404 292 421 291 438 288 c 1
 397 307 369 350 351 417 c 0
831 710 m 1
 810 710 795 699 787 676 c 1
 796 671 804 665 813 659 c 0
 822 653 829 646 833 638 c 1
 808 622 l 1
 755 656 703 673 652 673 c 0
 612 673 569 663 524 644 c 0
 487 628 455 601 428 564 c 0
 401 527 388 489 388 450 c 0
 388 412 398 379 419 351 c 0
 442 320 471 305 507 305 c 0
 522 305 537 307 552 312 c 1
 562 323 576 336 593 349 c 0
 614 365 630 373 641 373 c 0
 652 373 657 368 657 359 c 0
 657 356 648 346 629 330 c 0
 608 311 596 300 593 297 c 0
 595 294 603 281 618 258 c 0
 628 243 633 228 634 213 c 1
 627 204 619 200 610 201 c 0
 607 202 597 215 578 238 c 0
 576 239 574 240 571 240 c 0xbfc0
 562 240 557 236 557 228 c 0
 557 227 557 226 558 225 c 0
 563 220 568 215 573 210 c 0
 576 206 579 198 583 186 c 1
 561 164 l 1
 557 168 544 182 524 207 c 0
 507 227 485 241 457 247 c 0
 440 251 413 253 376 253 c 0xdfc0
 295 253 225 226 163 173 c 0
 99 117 66 50 66 -30 c 0
 66 -121 106 -199 185 -264 c 0
 261 -327 345 -356 436 -352 c 0
 527 -348 605 -323 672 -278 c 0
 742 -231 793 -166 824 -83 c 0
 829 -70 831 -56 831 -41 c 0
 831 -4 817 42 787 95 c 0
 776 115 751 155 712 214 c 0
 698 236 690 249 690 256 c 0
 690 270 705 291 734 319 c 0
 783 366 812 397 823 410 c 0
 855 449 871 487 871 523 c 0
 871 545 861 569 842 594 c 1
 857 609 l 1
 864 608 870 605 875 600 c 1
 882 615 896 625 919 629 c 0
 920 631 920 633 921 636 c 0
 921 661 891 686 831 710 c 1
631 419 m 0
 622 424 618 430 618 437 c 0
 618 446 619 461 621 480 c 0
 624 500 625 515 625 525 c 0
 625 532 625 538 624 545 c 1
 629 550 l 2
 631 551 633 552 635 553 c 2
 638 553 l 2
 651 553 657 545 657 528 c 0
 657 512 655 492 651 468 c 0
 646 435 639 419 631 419 c 0
EndSplineSet
Validated: 2097185
EndChar

StartChar: H
Encoding: 72 72 8
Width: 851
Flags: W
HStem: -189 34 -189 37 40 28<138.5 145> 324 28<600.5 628.5> 729 36<182.5 196> 741 25<85 94.5> 770 20G<254.5 260.5>
VStem: 73 31 81 27 81 31<117.5 133 117.5 192> 264 29 336 28 336 30<284.5 288> 505 310<120.5 201.5> 530 24
LayerCount: 2
Back
Fore
SplineSet
793 -5 m 0xb6aa
 788 -25 770 -54 738 -93 c 0
 703 -136 676 -158 657 -158 c 0
 648 -158 635 -161 620 -167 c 0
 601 -174 589 -179 582 -180 c 0
 550 -186 521 -189 495 -189 c 0
 469 -189 423 -182 356 -167 c 0
 345 -165 331 -153 313 -133 c 0
 297 -116 288 -104 286 -99 c 0
 281 -86 276 -74 272 -61 c 0
 266 -45 264 -32 264 -23 c 0
 264 -22 263 6 262 61 c 1
 254 58 234 54 202 48 c 0
 171 43 150 40 140 40 c 0
 105 40 86 63 81 109 c 0
 81 132 83 160 81 192 c 0
 79 239 74 303 73 382 c 0x772c
 72 479 70 542 69 572 c 0
 68 599 58 633 46 676 c 0
 43 691 38 707 32 724 c 1
 26 721 l 2
 23 721 20 724 15 730 c 0
 11 736 8 740 5 741 c 1
 34 758 66 766 101 766 c 0
 114 766 133 765 159 765 c 0x7b2a
 184 765 203 765 215 765 c 0
 217 765 223 769 232 777 c 0
 242 786 251 790 258 790 c 0
 263 790 271 777 283 751 c 0
 302 710 314 655 318 585 c 1
 357 603 383 612 396 612 c 0
 403 610 417 608 436 607 c 0
 456 606 470 605 478 603 c 0
 534 588 562 535 562 443 c 0
 562 438 559 405 554 342 c 1
 556 343 l 2
 576 349 593 352 608 352 c 0
 670 352 721 330 760 285 c 0
 797 244 815 195 815 139 c 0x772a
 815 102 807 54 793 -5 c 0xb6aa
602 324 m 0
 595 324 585 322 571 318 c 0
 557 315 550 311 549 307 c 0
 544 278 539 229 534 161 c 0
 531 161 526 160 519 159 c 0
 513 158 508 157 505 157 c 0
 501 157 499 159 499 164 c 0
 499 167 500 171 502 177 c 0
 504 184 505 188 505 190 c 0
 505 213 509 254 517 312 c 0
 526 371 530 416 530 448 c 0x772a
 530 468 527 490 520 515 c 0
 511 547 498 566 482 573 c 0
 461 582 430 585 387 583 c 1
 341 573 315 555 308 530 c 1
 297 521 283 504 264 479 c 1
 243 441 231 422 227 422 c 0
 217 422 212 427 212 438 c 0
 212 457 225 483 250 516 c 0
 276 549 289 571 289 580 c 0
 289 636 277 695 253 756 c 1
 222 738 201 729 191 729 c 0
 174 729 155 731 134 735 c 0
 113 739 99 741 90 741 c 0xb72a
 80 741 69 739 56 734 c 1
 68 712 79 676 89 625 c 0
 99 578 104 540 104 513 c 2
 104 484 l 2
 104 454 105 389 108 288 c 0x7672
 111 194 112 140 112 126 c 0x76aa
 112 109 113 97 116 89 c 0
 121 75 131 68 146 68 c 0
 147 67 148 67 151 67 c 0
 177 67 214 76 262 93 c 1
 271 146 295 206 334 272 c 0
 335 275 336 282 336 293 c 1
 336 283 334 312 329 381 c 0
 332 384 338 386 347 386 c 0
 355 386 361 377 364 360 c 0
 363 337 364 313 366 287 c 0x772a
 366 282 366 278 367 275 c 0
 368 272 369 271 369 271 c 2
 369 270 364 262 354 247 c 0
 314 184 293 121 293 58 c 0
 293 17 295 -12 298 -31 c 0
 303 -61 316 -88 335 -112 c 0
 341 -119 359 -128 391 -140 c 0
 421 -151 440 -157 449 -157 c 0
 463 -157 484 -156 513 -155 c 0
 542 -153 563 -152 576 -152 c 0x7b2a
 589 -152 609 -146 636 -133 c 0
 638 -132 645 -127 657 -119 c 0
 666 -113 674 -110 679 -112 c 1
 679 -112 l 1
 684 -112 697 -99 717 -72 c 0
 738 -45 750 -27 753 -18 c 0
 774 34 785 87 785 141 c 0
 785 195 768 239 733 273 c 0
 699 307 655 324 602 324 c 0
EndSplineSet
Validated: 2097189
EndChar

StartChar: I
Encoding: 73 73 9
Width: 564
Flags: W
HStem: -192 42<123.5 132 119 159.5> 685 31<263 284.5> 702 30<166.5 186> 772 20G<308.5 317>
VStem: 16 42<49.5 63.5 24.5 92.5> 45 39<570.5 593.5 564.5 598.5> 434 39<603.5 658.5 603.5 662> 472 39<-29 -9.5 -44.5 -1> 480 39<300.5 319.5>
LayerCount: 2
Back
Fore
SplineSet
486 138 m 0xb9
 475 96 470 74 470 72 c 1
 470 72 l 1
 475 65 l 2
 499 32 511 3 511 -22 c 0
 511 -67 482 -105 423 -135 c 0
 379 -158 337 -169 300 -171 c 1
 219 -185 169 -192 150 -192 c 0
 97 -192 59 -153 36 -74 c 0
 22 -27 16 23 16 76 c 0
 16 109 23 156 36 218 c 0
 47 268 56 305 64 329 c 0
 73 354 85 373 100 386 c 0
 112 397 137 413 176 435 c 1
 144 446 119 456 101 465 c 0
 83 474 68 494 57 523 c 0
 49 544 45 563 45 578 c 0xd680
 45 619 56 653 77 682 c 0
 102 715 137 732 182 732 c 0
 193 732 210 729 232 724 c 0
 254 719 271 716 282 716 c 0xb680
 287 716 294 720 303 727 c 0
 312 734 316 741 316 746 c 2
 316 746 316 746 315 747 c 0
 303 760 297 771 297 780 c 0
 297 788 303 792 314 792 c 0
 320 792 329 791 340 788 c 0
 352 785 359 784 361 784 c 0
 394 784 422 766 445 731 c 0
 464 702 473 673 473 644 c 0
 473 563 451 511 408 487 c 0
 403 484 394 480 383 474 c 1
 474 470 519 416 519 313 c 0
 519 281 508 223 486 138 c 0xb9
358 751 m 1
 358 750 l 1
 354 715 335 694 302 688 c 0
 291 686 280 685 270 685 c 0
 256 685 240 688 222 693 c 0
 205 699 191 702 181 702 c 0xd9
 152 702 128 687 109 658 c 0
 92 633 84 607 84 580 c 0
 84 549 89 526 99 511 c 0
 110 496 130 485 161 475 c 0
 188 467 210 462 226 462 c 0
 236 462 262 467 305 479 c 0
 391 503 434 559 434 647 c 0
 434 677 427 700 414 716 c 0xb680
 403 729 385 740 358 751 c 1
475 359 m 0
 465 404 446 429 418 435 c 0
 398 439 378 441 359 441 c 0
 334 441 300 436 259 427 c 0
 232 424 207 415 182 398 c 0
 178 395 157 378 119 346 c 0
 111 339 100 313 86 266 c 0
 73 219 66 187 66 170 c 0
 61 119 58 78 58 49 c 0
 58 0 64 -44 77 -82 c 0
 80 -91 85 -103 95 -120 c 0
 107 -140 116 -150 122 -150 c 0
 142 -150 172 -147 213 -141 c 0
 254 -135 284 -132 305 -132 c 0
 312 -132 323 -130 337 -126 c 0
 351 -121 361 -119 367 -118 c 0
 392 -115 415 -103 438 -82 c 0
 461 -60 472 -39 472 -19 c 0
 472 17 448 53 401 89 c 0
 386 100 379 108 379 113 c 0
 379 116 381 118 385 119 c 0
 390 121 393 123 395 124 c 0
 397 126 399 127 402 127 c 0
 407 127 413 124 420 117 c 0
 429 108 434 103 437 102 c 1
 443 121 452 148 463 184 c 1
 474 248 480 290 480 311 c 0xb680
 480 328 478 344 475 359 c 0
EndSplineSet
Validated: 2097157
EndChar

StartChar: J
Encoding: 74 74 10
Width: 693
Flags: W
HStem: -195 32 241 28<228.5 246.5> 259 247<515 546.5> 340 166<515 546> 478 28<515 544.5> 482 24<518.5 528 515 528.5> 494 27<369 380.5 369 389.5 380 380.5 369 424> 710 26<401 435> 775 20G
VStem: 4 32<26.5 46.5> 290 28<589 607.5 589 610.5> 326 27 497 30<749 751.5 735.5 754.5> 578 28<332 341> 580 28<419 429.5> 598 28<618.5 641.5 618.5 648.5>
LayerCount: 2
Back
Fore
SplineSet
276 -191 m 0xc3f9
 275 -194 270 -195 261 -195 c 0
 248 -195 219 -190 174 -182 c 0
 61 -160 4 -85 4 44 c 0
 4 49 8 65 14 94 c 0
 27 151 56 196 102 227 c 0
 143 255 192 269 247 269 c 0
 264 269 283 262 306 248 c 1
 307 271 310 301 315 338 c 0
 321 381 325 410 326 426 c 0
 327 440 330 450 334 454 c 0
 352 473 383 486 424 494 c 1
 414 494 399 494 380 494 c 0
 354 494 332 507 314 532 c 0
 298 554 290 575 290 598 c 0
 290 623 300 651 319 681 c 0
 342 717 369 735 401 736 c 0
 410 736 420 736 432 734 c 0
 445 733 454 732 459 732 c 0
 466 732 474 734 483 737 c 0
 492 741 497 746 497 752 c 0
 497 757 491 765 478 776 c 0
 473 780 469 785 466 792 c 1
 475 797 485 798 498 795 c 0
 501 794 503 794 505 794 c 0
 520 794 547 780 585 751 c 0
 598 741 609 722 617 693 c 0
 623 670 626 650 626 633 c 0
 626 604 618 578 601 555 c 0
 582 528 555 514 520 512 c 0
 514 511 506 508 496 503 c 1
 509 505 515 506 515 506 c 1xc3fc
 541 506 563 498 581 481 c 0
 599 464 608 444 608 420 c 0
 608 409 601 395 588 376 c 1
 600 365 606 351 606 334 c 0xa1fa
 606 317 597 299 578 279 c 1
 587 270 594 253 600 228 c 0
 609 191 614 172 614 171 c 0
 613 169 613 144 614 97 c 1
 605 51 587 6 560 -37 c 0
 528 -88 489 -127 443 -154 c 0
 436 -161 409 -169 363 -178 c 0
 320 -187 291 -191 276 -191 c 0xc3f9
524 764 m 1
 526 759 527 754 527 749 c 0
 527 722 496 709 435 710 c 0
 426 710 414 710 400 711 c 0
 381 707 363 693 345 668 c 0
 327 643 318 619 318 596 c 0
 318 582 323 567 333 550 c 0
 345 531 360 521 378 521 c 0
 383 521 390 520 400 518 c 0
 410 516 418 515 423 515 c 0
 443 515 466 519 492 528 c 0
 515 536 537 545 559 552 c 0
 585 561 598 588 598 635 c 0xa1f9
 598 662 593 688 581 711 c 0
 567 738 548 755 524 764 c 1
569 223 m 2
 553 262 l 2
 553 263 552 262 550 261 c 0
 548 260 547 259 546 259 c 0
 534 259 528 264 528 274 c 0
 528 277 531 281 538 286 c 0
 565 305 578 323 578 341 c 0xc5fa
 576 346 574 351 571 356 c 1
 558 345 549 340 543 340 c 0
 536 340 530 346 524 359 c 1
 536 365 548 375 561 388 c 0
 574 402 580 414 580 424 c 0xc9fa
 580 435 576 446 569 457 c 0
 560 471 550 478 539 478 c 0
 537 478 535 479 532 480 c 0
 530 481 529 482 528 482 c 0xd1fc
 509 482 473 477 419 468 c 1
 390 457 375 451 374 450 c 0
 360 441 353 426 353 407 c 2
 333 286 l 2
 334 273 334 261 335 248 c 0
 336 232 340 220 345 211 c 1
 341 194 350 166 371 128 c 0
 393 88 404 66 404 65 c 0
 404 61 398 59 387 59 c 0
 379 59 366 76 347 111 c 0
 332 138 324 157 321 167 c 0
 313 194 303 213 292 223 c 0
 279 235 260 241 233 241 c 0
 224 241 205 238 174 232 c 0
 133 224 98 197 71 152 c 0
 48 113 36 77 36 42 c 0
 36 11 43 -23 58 -60 c 0
 67 -82 91 -104 130 -127 c 0
 169 -150 200 -162 224 -162 c 0
 235 -162 251 -162 272 -163 c 0
 293 -164 309 -164 320 -164 c 0
 391 -164 454 -128 509 -57 c 0
 560 10 586 79 586 152 c 0
 585 153 582 164 577 187 c 0
 572 210 569 222 569 223 c 2
EndSplineSet
Validated: 2097185
EndChar

StartChar: K
Encoding: 75 75 11
Width: 879
Flags: W
HStem: -201 38<457 488.5> 316 28<601.5 633> 762 29<497.5 506.5 489 511>
VStem: 41 36 44 33 47 30<340 340> 281 28<556.5 578.5> 296 29 803 28
LayerCount: 2
Back
Fore
SplineSet
309 553 m 1xea80
 311 558 319 584 333 631 c 0
 333 639 329 650 321 665 c 0
 315 676 309 688 303 699 c 1
 315 723 345 745 394 765 c 0
 437 783 474 791 504 791 c 0
 509 791 532 784 573 770 c 1
 592 755 605 741 612 730 c 0
 621 715 625 695 624 670 c 1
 577 586 l 1
 578 580 l 1
 540 546 519 523 515 511 c 1
 535 452 548 393 555 336 c 1
 578 341 595 344 608 344 c 0
 658 344 711 323 767 282 c 1
 792 243 809 215 816 199 c 0
 829 169 834 137 833 102 c 0
 832 84 832 66 831 47 c 0
 830 20 827 4 822 -3 c 0
 805 -28 784 -55 758 -83 c 0
 722 -122 694 -142 675 -145 c 0
 642 -157 610 -170 577 -181 c 0
 537 -195 503 -201 474 -201 c 0
 440 -201 408 -196 377 -186 c 0
 362 -181 331 -168 286 -148 c 0
 251 -132 224 -107 206 -72 c 0
 192 -46 181 -10 173 36 c 1
 128 29 99 26 86 28 c 1
 36 65 l 1
 41 100 44 146 44 203 c 0
 44 273 45 319 47 340 c 0xf280
 47 346 45 381 41 444 c 0xf180
 37 507 35 540 35 541 c 2
 6 648 l 1
 14 664 l 1
 32 683 70 700 129 716 c 1
 180 715 218 721 244 732 c 0
 246 733 257 739 277 748 c 1
 296 725 l 1
 298 706 302 677 309 639 c 1xe580
 306 633 306 604 309 553 c 1xea80
204 371 m 1
 203 374 199 376 193 378 c 0
 187 380 184 383 184 386 c 0
 184 387 184 389 185 391 c 0
 215 422 245 455 274 491 c 1
 274 498 275 510 277 525 c 0
 280 540 281 552 281 561 c 0
 281 596 275 643 263 701 c 1
 247 692 227 687 204 687 c 0
 193 687 174 689 149 692 c 1
 130 687 111 681 92 675 c 0
 69 668 52 659 40 650 c 1
 46 630 53 600 62 559 c 0
 65 532 71 459 77 341 c 0
 81 257 78 170 67 81 c 0
 68 75 79 67 98 56 c 1
 115 59 141 63 175 70 c 1
 191 148 l 2
 196 174 209 201 232 226 c 0
 252 249 273 270 293 292 c 1
 296 313 297 329 296 341 c 1xf180
 314 360 l 1
 327 344 l 1
 325 307 l 1
 341 313 l 1
 352 309 358 304 358 299 c 0
 358 297 358 295 357 294 c 0
 357 293 341 280 310 254 c 0
 279 229 259 210 250 197 c 0
 231 170 217 120 207 49 c 0
 205 34 208 15 216 -6 c 0
 223 -24 231 -42 238 -59 c 1
 305 -128 385 -163 479 -163 c 0
 514 -163 549 -157 584 -146 c 0
 646 -126 696 -97 734 -60 c 0
 780 -16 803 35 803 93 c 0
 803 150 786 201 751 245 c 0
 713 293 666 316 611 316 c 0
 584 316 565 313 553 307 c 1
 539 203 522 134 501 100 c 1
 494 98 l 1
 478 107 l 1
 504 193 520 266 526 327 c 0
 530 368 520 420 493 481 c 1
 478 462 461 442 440 420 c 1
 434 419 l 1
 418 428 l 1
 421 443 446 480 493 538 c 0
 524 576 554 614 585 652 c 1
 588 672 589 685 588 690 c 0
 587 697 583 710 576 729 c 1
 542 751 518 762 504 762 c 0
 491 762 466 755 428 740 c 0
 391 726 365 714 351 704 c 1
 345 691 l 1
 365 624 l 1
 357 559 303 474 204 371 c 1
EndSplineSet
Validated: 2097185
EndChar

StartChar: L
Encoding: 76 76 12
Width: 933
Flags: W
HStem: -185 33<494 564> -183 31 -180 28<469.5 543.5> -58 39<88.5 100.5 78.5 109.5> -49 40 290 31<339.5 341.5 320.5 371.5> 314 31<678.5 689 655.5 711> 753 30<339 368.5>
VStem: 11 35<57 101.5> 38 41<617.5 619.5 602.5 643.5> 426 35<607.5 635> 865 34<120.5 127.5 71.5 144.5>
LayerCount: 2
Back
Fore
SplineSet
373 783 m 0x93b0
 403 783 427 762 443 719 c 0
 455 687 461 654 461 620 c 0
 461 595 453 534 438 438 c 0
 435 421 429 401 420 377 c 0
 407 342 399 322 398 317 c 1
 405 314 415 310 428 305 c 1
 450 328 473 343 498 350 c 0
 517 356 545 358 582 359 c 1
 599 350 632 345 679 345 c 0
 699 345 716 351 731 364 c 0
 740 372 752 386 766 407 c 0
 773 417 778 422 782 422 c 0
 787 422 793 419 798 414 c 1
 798 415 798 408 796 393 c 0
 795 385 796 378 800 372 c 0
 833 321 856 279 870 245 c 0
 889 198 899 151 899 104 c 0
 899 39 872 -21 818 -74 c 0
 768 -123 710 -155 643 -170 c 0
 598 -180 570 -185 558 -185 c 0
 551 -185 539 -184 522 -183 c 0x3370
 505 -181 492 -180 483 -180 c 0x35b0
 456 -180 422 -170 382 -150 c 0
 337 -127 314 -104 314 -80 c 0
 314 -66 313 -57 312 -54 c 0
 311 -51 307 -49 299 -49 c 0
 282 -49 253 -34 211 -5 c 0
 206 -1 202 2 199 3 c 0
 156 -38 122 -58 97 -58 c 0x2db0
 80 -58 68 -56 61 -51 c 0
 28 -30 11 7 11 59 c 0
 11 144 25 240 53 348 c 0
 56 359 65 386 81 428 c 0
 94 462 101 488 103 507 c 1
 60 553 38 597 38 638 c 0x55b0
 38 649 49 664 70 681 c 0
 76 686 96 700 131 723 c 1
 216 763 296 783 373 783 c 0x93b0
328 82 m 0
 333 93 340 99 347 99 c 0
 352 99 358 96 365 90 c 1
 348 47 339 9 339 -26 c 0
 339 -63 359 -94 400 -119 c 0
 436 -141 474 -152 514 -152 c 0
 573 -152 629 -142 680 -122 c 0
 739 -99 783 -67 813 -24 c 0
 830 0 840 20 844 35 c 0
 845 40 846 49 849 60 c 0
 860 87 865 111 865 130 c 0
 865 159 852 207 824 276 c 0
 817 293 801 318 777 350 c 1
 756 326 728 314 694 314 c 0
 663 314 636 316 611 319 c 0
 575 324 558 326 561 326 c 1
 523 326 489 313 459 287 c 1
 467 278 l 2
 474 271 476 265 476 262 c 0
 476 252 470 247 459 246 c 1
 424 275 389 290 354 290 c 0x2db0
 325 290 304 287 289 281 c 0
 286 280 277 275 264 267 c 0
 251 259 243 255 240 255 c 0
 232 255 225 259 218 268 c 1
 229 279 l 1
 224 286 l 1
 267 309 305 321 336 321 c 0
 347 321 355 323 360 325 c 0
 369 329 382 374 400 461 c 0
 417 543 426 596 426 619 c 0
 426 651 421 679 412 704 c 0
 399 737 381 753 356 753 c 0
 322 753 271 737 203 706 c 1
 188 706 163 694 129 669 c 0
 96 645 79 626 79 613 c 0
 79 592 94 567 123 537 c 0
 153 508 168 493 168 493 c 1
 168 482 163 476 154 476 c 0
 151 476 143 479 132 486 c 1
 75 325 46 185 46 64 c 0x35b0
 46 50 50 34 56 15 c 0
 64 -8 73 -19 84 -19 c 0
 117 -19 149 -1 181 34 c 0
 188 42 193 46 196 46 c 0
 203 46 216 37 237 18 c 0
 258 -1 273 -10 284 -10 c 0
 286 -10 292 -10 303 -9 c 1x3570
 307 13 311 29 313 39 c 0
 318 62 323 76 328 82 c 0
EndSplineSet
Validated: 2097189
EndChar

StartChar: M
Encoding: 77 77 13
Width: 1144
Flags: W
HStem: -237 38<713.5 752.5 713.5 756.5> 241 31<874.5 901> 674 30 740 31<359 421.5 358 422.5>
VStem: 375 34 447 43<-61.5 -35> 605 33<562.5 586.5 562.5 602> 831 29<418.5 452.5 404.5 461.5> 934 32<631 645> 1051 49
LayerCount: 2
Back
Fore
SplineSet
850 -216 m 0
 821 -230 781 -237 732 -237 c 0
 671 -237 614 -227 561 -207 c 0
 504 -185 469 -157 458 -122 c 0
 451 -99 447 -75 447 -50 c 0
 447 -20 453 15 465 55 c 0
 476 90 487 124 498 158 c 1
 485 161 470 166 453 174 c 1
 448 164 442 147 436 123 c 0
 432 106 428 88 423 70 c 0
 420 60 414 53 404 49 c 0
 351 31 287 14 212 1 c 0
 147 -10 81 -20 16 -31 c 0
 12 -32 9 -31 7 -28 c 0
 5 -25 4 -20 4 -15 c 0
 5 -8 7 -1 10 8 c 0
 11 9 40 78 98 214 c 0
 134 297 159 368 172 426 c 1
 138 468 121 510 121 552 c 0
 121 613 151 667 211 711 c 0
 266 751 326 771 390 771 c 0
 453 771 512 752 565 715 c 0
 571 711 580 702 593 687 c 0
 606 672 615 660 620 651 c 1
 640 662 671 673 713 684 c 0
 764 698 810 704 850 704 c 0
 890 704 921 697 942 682 c 0
 958 671 966 658 966 641 c 0
 966 621 954 598 930 573 c 0
 909 552 885 533 856 516 c 1
 859 490 860 465 860 440 c 0
 860 369 849 311 826 266 c 1
 846 270 865 272 884 272 c 0
 950 272 1003 249 1044 202 c 0
 1081 159 1100 108 1100 49 c 0
 1100 -10 1081 -58 1044 -97 c 0
 1014 -128 950 -168 850 -216 c 0
876 241 m 0
 860 241 843 239 825 236 c 1
 824 235 l 2
 821 228 815 226 807 229 c 0
 804 227 797 218 785 202 c 0
 761 170 746 153 737 153 c 0
 727 153 722 158 722 169 c 0
 722 176 725 182 732 188 c 0
 743 201 763 231 794 278 c 1
 819 336 831 392 831 445 c 0
 831 478 826 509 815 536 c 0
 814 540 812 544 807 549 c 0
 803 554 801 560 801 565 c 0
 801 574 805 578 813 578 c 0
 824 578 834 567 845 545 c 1
 904 586 934 618 934 641 c 0
 934 649 930 656 922 661 c 0
 904 672 872 677 825 674 c 0
 746 669 682 653 632 624 c 1
 636 610 638 595 638 578 c 0
 638 547 631 514 617 479 c 0
 604 445 587 418 568 397 c 1
 544 378 529 370 523 374 c 0
 514 380 512 387 517 395 c 0
 524 399 534 409 548 426 c 0
 562 443 570 455 572 461 c 0
 594 505 605 544 605 578 c 0
 605 626 584 664 542 693 c 0
 497 724 449 740 396 740 c 0
 322 740 260 713 208 659 c 0
 170 619 152 580 157 542 c 0
 162 504 191 458 244 403 c 0
 249 398 251 392 251 385 c 0
 251 377 248 373 241 373 c 0
 238 373 233 374 228 377 c 0
 223 380 215 386 205 397 c 1
 189 342 166 277 136 202 c 0
 110 137 83 73 56 9 c 1
 94 16 155 27 240 42 c 0
 333 59 383 71 390 78 c 1
 397 108 409 145 426 190 c 1
 392 221 375 255 375 292 c 0
 375 307 378 324 384 344 c 0
 386 350 390 353 399 353 c 0
 412 353 417 348 416 338 c 0
 415 334 412 325 410 312 c 0
 404 272 422 238 462 210 c 0
 469 205 487 198 516 189 c 1
 591 325 l 2
 598 332 606 333 615 326 c 0
 620 323 622 318 622 313 c 0
 622 302 606 266 575 205 c 0
 518 94 490 10 490 -47 c 0
 490 -76 496 -101 509 -121 c 0
 526 -148 561 -169 612 -183 c 0
 651 -194 692 -199 735 -199 c 0
 770 -199 801 -195 828 -185 c 0
 842 -180 870 -166 912 -144 c 0
 960 -118 991 -97 1006 -82 c 0
 1041 -45 1056 5 1050 70 c 0
 1046 121 1028 162 997 193 c 0
 966 225 926 241 876 241 c 0
EndSplineSet
Validated: 2097185
EndChar

StartChar: N
Encoding: 78 78 14
Width: 802
Flags: W
HStem: -136 32<485.5 503.5 482.5 521.5> 604 30<164.5 177.5 154 189.5> 760 31 762 29
VStem: 17 32 19 33 207 33<147.5 165.5 125 187> 343 37<656.5 665.5 656.5 675.5> 687 33<328.5 331.5 312 335> 692 34<642.5 660.5> 706 31<137.5 178.5>
LayerCount: 2
Back
Fore
SplineSet
441 -127 m 0xd720
 438 -126 431 -127 420 -128 c 0
 410 -129 403 -129 398 -128 c 0
 381 -124 356 -115 324 -101 c 1
 305 -115 285 -121 266 -120 c 0
 260 -120 243 -117 215 -113 c 0
 178 -107 151 -108 134 -115 c 0
 103 -128 85 -134 80 -134 c 0
 75 -134 69 -133 63 -132 c 0
 57 -130 47 -126 34 -121 c 0
 21 -115 14 -96 15 -65 c 0
 15 -47 18 -21 19 13 c 0
 20 102 19 215 17 351 c 0xdb40
 16 441 16 491 19 501 c 0xdb20
 26 525 42 551 67 578 c 0
 101 615 136 634 172 634 c 0
 183 634 193 632 203 629 c 0
 268 609 320 548 361 445 c 1
 376 505 383 557 383 601 c 1
 374 610 366 618 358 627 c 0
 348 638 343 648 343 657 c 0
 343 694 380 727 456 756 c 0
 518 780 572 791 616 791 c 0
 628 791 637 790 644 788 c 0
 699 771 726 727 726 656 c 0
 726 609 714 550 689 479 c 0
 683 462 673 435 660 399 c 1
 700 376 720 348 720 315 c 0xdb80
 720 309 719 303 718 297 c 0
 715 289 708 281 695 273 c 1
 723 251 737 211 737 154 c 0xe740
 737 121 734 92 726 67 c 0xdb20
 712 20 685 -23 647 -63 c 0
 600 -112 549 -136 494 -136 c 0
 477 -136 459 -133 441 -127 c 0xd720
650 261 m 0
 635 266 627 277 626 292 c 0
 629 293 643 299 666 310 c 0
 672 313 678 317 685 322 c 0
 686 325 687 327 687 330 c 0xd720
 687 340 675 351 650 363 c 1
 639 330 628 314 617 315 c 0
 610 317 606 322 606 331 c 0
 606 333 610 347 618 373 c 0
 619 373 631 406 653 471 c 0
 667 512 677 547 683 576 c 0
 689 609 692 634 692 651 c 0xdb20
 692 670 689 687 684 702 c 0
 679 717 671 730 660 741 c 0
 647 755 635 762 622 760 c 1
 610 766 570 760 505 744 c 0
 478 737 447 723 415 701 c 0
 391 685 380 671 380 660 c 0
 380 653 383 646 388 637 c 0
 394 629 401 624 408 623 c 0
 416 622 429 620 448 615 c 0
 454 613 457 609 457 603 c 0
 457 597 454 591 449 586 c 0
 444 581 438 580 432 582 c 0
 426 584 421 584 418 583 c 0
 411 506 403 455 395 430 c 0
 391 417 382 390 367 349 c 0
 352 308 344 287 342 284 c 0
 337 276 331 272 324 272 c 0
 312 272 308 279 313 292 c 0
 321 315 328 337 334 357 c 0
 340 378 342 391 341 396 c 0
 330 454 305 505 266 550 c 0
 235 586 205 604 174 604 c 0
 155 604 135 597 116 583 c 0
 85 560 63 530 52 493 c 0
 49 482 48 409 49 272 c 0xe740
 51 71 52 -53 52 -100 c 1xdb80
 57 -102 62 -103 68 -103 c 0
 73 -103 90 -98 118 -89 c 0
 139 -82 159 -79 178 -79 c 0
 199 -79 221 -83 244 -90 c 0
 249 -92 258 -91 271 -89 c 0
 284 -87 293 -83 297 -77 c 1
 269 -58 246 -23 229 29 c 0
 214 75 207 123 207 172 c 0
 207 202 210 227 216 247 c 0
 218 255 229 259 248 258 c 1
 253 249 253 238 249 225 c 0
 243 205 240 180 240 151 c 0
 240 99 249 52 268 9 c 0
 291 -42 324 -75 367 -88 c 0
 393 -96 411 -100 420 -100 c 0
 423 -100 426 -100 429 -99 c 0
 432 -98 434 -97 436 -97 c 0
 439 -97 443 -98 448 -99 c 0
 463 -103 476 -104 489 -104 c 0
 518 -104 549 -93 581 -71 c 0
 613 -48 636 -28 651 -9 c 0
 668 12 683 42 696 79 c 0
 703 98 706 120 706 147 c 0
 706 210 687 248 650 261 c 0
EndSplineSet
Validated: 2097185
EndChar

StartChar: O
Encoding: 79 79 15
Width: 743
Flags: W
HStem: -190 32<270 311.5> -178 38<408.5 414.5> 108 299<350.5 375> 750 40<356.5 371.5>
VStem: 17 45<507.5 530.5 507 531> 90 44<316 316 316 326> 352 48 656 40<274.5 345>
LayerCount: 2
Back
Fore
SplineSet
571 -58 m 0x7f
 507 -138 445 -178 384 -178 c 0
 376 -178 363 -180 346 -184 c 0
 329 -188 316 -190 307 -190 c 0xbf
 224 -190 159 -154 112 -81 c 0
 75 -25 57 34 57 97 c 0
 57 104 62 138 73 200 c 0
 84 262 90 299 90 310 c 0
 90 342 78 379 53 420 c 0
 29 462 17 495 17 520 c 0
 17 542 24 563 39 583 c 1
 33 594 30 602 30 607 c 0
 30 615 40 629 59 649 c 0
 78 669 94 682 107 689 c 0
 192 735 235 759 238 760 c 0
 283 780 331 790 382 790 c 0
 388 790 395 789 404 786 c 0
 413 784 419 783 423 783 c 0
 477 783 534 744 593 666 c 0
 648 593 674 535 673 490 c 0
 673 485 674 476 676 463 c 0
 690 390 696 349 696 341 c 0
 695 244 685 167 666 108 c 0
 649 55 617 0 571 -58 c 0x7f
561 647 m 0
 522 692 500 715 494 715 c 0
 493 716 491 716 488 717 c 2
 477 721 l 2
 425 740 386 750 357 750 c 0
 329 750 284 735 221 706 c 0
 159 677 115 649 90 624 c 0
 86 621 80 606 73 580 c 0
 66 554 62 536 62 525 c 0
 62 489 79 448 114 402 c 1
 128 359 135 331 134 316 c 2
 102 99 l 1
 115 24 132 -36 155 -80 c 0
 160 -89 175 -103 201 -123 c 0
 231 -146 254 -158 270 -158 c 2
 317 -158 l 2
 324 -158 340 -155 364 -149 c 0
 389 -143 405 -140 412 -140 c 0x7f
 436 -140 469 -119 511 -76 c 0
 551 -36 585 22 613 97 c 0
 642 173 656 243 656 306 c 0
 656 318 655 330 654 341 c 0
 644 436 637 489 634 502 c 0
 622 555 598 604 561 647 c 0
400 111 m 0
 397 109 385 108 365 108 c 0
 359 108 355 134 352 186 c 0
 351 214 348 250 345 293 c 1
 337 340 333 370 333 382 c 0
 333 399 342 407 359 407 c 0
 364 407 371 388 379 350 c 0
 386 317 391 291 392 272 c 0
 397 205 400 151 400 111 c 0
EndSplineSet
Validated: 2097185
EndChar

StartChar: P
Encoding: 80 80 16
Width: 847
Flags: W
HStem: -471 33 61 43<229 335.5> 217 37<555 555> 217 329<289.5 555> 652 41<548 575.5 539 582.5> 702 29<371.5 386.5>
VStem: 19 41 200 31<371.5 389.5> 687 34<-112 -98 -98 -74.5> 750 36
LayerCount: 2
Back
Fore
SplineSet
647 246 m 0xdfc0
 610 225 580 215 555 217 c 2
 543 218 l 1
 658 127 717 30 721 -72 c 0
 721 -81 721 -92 721 -104 c 0
 721 -120 720 -129 720 -131 c 0
 720 -216 682 -294 606 -365 c 0
 530 -436 450 -471 365 -471 c 0
 260 -471 180 -453 125 -416 c 0
 54 -369 19 -291 19 -180 c 0
 19 -112 41 -50 83 7 c 0
 131 72 192 104 266 104 c 0
 280 104 294 103 309 101 c 1
 309 120 315 136 328 148 c 0
 341 161 358 167 380 166 c 1
 359 189 317 228 254 283 c 0
 218 315 200 347 200 379 c 0
 200 400 205 424 216 451 c 0
 227 478 241 501 258 519 c 1
 252 535 245 547 236 553 c 0
 232 556 220 561 199 570 c 0
 178 579 168 587 168 595 c 0
 168 614 199 648 263 696 c 0
 271 702 287 709 310 717 c 0
 335 726 355 731 370 731 c 0
 407 731 428 709 434 665 c 1
 468 684 512 693 566 693 c 0
 585 693 604 692 621 689 c 0
 672 681 714 651 745 600 c 0
 769 561 783 519 786 474 c 0
 793 379 747 303 647 246 c 0xdfc0
283 544 m 0
 285 545 288 546 291 546 c 0
 303 546 308 540 307 529 c 1
 256 476 231 426 231 381 c 0
 231 362 252 333 295 293 c 0
 316 273 347 246 386 209 c 0
 418 178 434 155 434 140 c 0
 434 127 426 123 411 126 c 0
 402 128 394 129 387 129 c 0
 368 129 358 121 357 105 c 0
 357 103 357 101 357 98 c 0
 358 95 358 94 358 93 c 0
 358 72 347 61 324 61 c 0
 241 61 178 42 137 4 c 0
 114 -17 96 -47 81 -86 c 0
 68 -121 61 -153 60 -184 c 0
 57 -260 80 -321 128 -366 c 0
 173 -409 235 -434 314 -438 c 0
 385 -442 451 -425 512 -388 c 0
 573 -351 619 -300 651 -235 c 0
 675 -188 687 -140 687 -93 c 0
 687 -56 679 -24 664 5 c 0
 636 58 602 106 558 145 c 0
 526 173 475 215 406 274 c 1
 410 283 416 288 424 288 c 0
 426 288 433 283 444 273 c 0
 455 264 463 259 466 259 c 0
 489 254 518 252 554 254 c 0xefc0
 609 256 655 278 690 320 c 0
 730 368 750 413 750 456 c 0
 750 509 731 555 693 594 c 0
 655 633 609 652 556 652 c 0
 540 652 523 650 505 647 c 0
 494 645 475 639 447 629 c 0
 440 626 428 622 412 616 c 0
 410 615 408 614 407 614 c 0
 403 614 399 616 395 620 c 0
 391 625 389 629 389 632 c 0
 389 635 391 639 395 642 c 0
 399 646 401 650 401 654 c 0
 401 686 394 702 379 702 c 0
 364 702 345 699 324 693 c 0
 303 687 287 680 277 671 c 0
 265 660 253 650 241 639 c 0
 226 625 219 611 219 599 c 1
 234 588 256 570 283 544 c 0
530 357 m 0
 526 354 521 352 515 352 c 0
 509 352 503 355 497 361 c 1
 506 399 516 443 524 494 c 0
 530 529 535 546 542 546 c 0xdfc0
 553 546 558 536 558 516 c 0
 558 495 554 469 547 436 c 0
 537 392 531 366 530 357 c 0
EndSplineSet
Validated: 2097185
EndChar

StartChar: Q
Encoding: 81 81 17
Width: 910
Flags: W
HStem: -473 47 158 37<628.5 675> 269 34<204 239.5> 442 290<262 265> 699 33<269 299.5 262 314.5>
VStem: 19 33<475 475> 89 44<-221.5 -174.5> 238 29<535.5 545.5> 504 32<527.5 550.5> 516 37<277.5 293 271.5 293.5> 844 45<-157 -64.5>
LayerCount: 2
Back
Fore
SplineSet
470 -473 m 0xefa0
 393 -476 312 -451 228 -399 c 0
 135 -341 89 -274 89 -198 c 0
 89 -151 105 -95 138 -30 c 0
 167 29 200 78 236 116 c 2
 367 255 l 1
 355 276 341 292 326 303 c 1
 297 280 261 269 218 269 c 0
 165 269 120 286 83 319 c 0
 40 358 19 410 19 475 c 0
 19 576 74 655 183 710 c 0
 212 725 244 732 280 732 c 0
 319 732 359 724 400 707 c 1
 421 731 436 743 446 743 c 0
 459 743 481 729 512 700 c 0
 543 671 558 651 558 640 c 0
 558 637 558 633 559 628 c 0
 560 624 560 621 560 620 c 0
 560 612 556 608 549 608 c 0
 522 608 511 608 517 609 c 1
 530 592 536 574 536 555 c 0
 536 480 512 421 465 377 c 1
 477 368 495 355 518 336 c 0
 541 318 553 301 553 285 c 0xef60
 553 258 541 236 516 217 c 1
 540 212 551 202 548 188 c 0
 547 185 545 179 541 171 c 1
 576 187 611 195 646 195 c 0
 715 195 772 167 819 110 c 0
 866 54 889 -13 889 -91 c 0
 889 -223 854 -319 786 -379 c 0
 720 -437 615 -468 470 -473 c 0xefa0
644 158 m 0
 593 158 544 136 499 91 c 1
 490 100 481 113 471 130 c 1
 500 159 513 176 510 181 c 0
 507 186 499 189 484 190 c 1
 462 167 448 156 442 156 c 0
 433 156 429 161 429 171 c 0
 429 176 431 180 434 183 c 0
 447 194 466 211 491 235 c 0
 508 251 516 268 516 287 c 0
 516 300 486 328 423 372 c 0
 410 381 402 387 401 388 c 0
 400 390 399 392 399 394 c 0
 399 398 401 402 404 406 c 0
 408 410 411 412 414 412 c 0
 416 412 421 409 428 404 c 0
 435 399 440 396 441 395 c 0
 458 406 473 427 486 458 c 0
 498 487 504 515 504 540 c 0xefa0
 504 561 500 578 492 591 c 1
 490 588 488 585 486 582 c 0
 475 577 466 578 459 587 c 1
 460 600 467 612 480 623 c 0
 493 634 507 640 522 640 c 1
 497 681 474 706 453 715 c 1
 441 701 425 687 406 672 c 0
 403 672 397 675 387 680 c 0
 361 693 331 699 298 699 c 0
 240 699 189 681 145 647 c 0
 88 603 57 545 52 474 c 0
 49 426 66 385 103 351 c 0
 138 319 180 303 228 303 c 0
 259 303 284 311 304 326 c 1
 287 341 277 351 274 358 c 0
 271 363 274 367 283 371 c 0
 292 376 299 378 304 377 c 0
 311 376 331 357 363 322 c 0
 395 287 411 264 411 255 c 0
 411 249 382 216 325 157 c 0
 255 85 204 18 172 -45 c 0
 146 -96 133 -143 133 -187 c 0
 133 -256 172 -315 251 -363 c 0
 320 -405 391 -426 464 -426 c 0
 591 -426 683 -405 741 -363 c 0
 810 -312 844 -223 844 -97 c 0
 844 -32 828 26 794 75 c 0
 756 130 706 158 644 158 c 0
261 442 m 0
 256 442 250 458 245 489 c 0
 240 516 238 532 238 539 c 0
 238 552 240 568 245 586 c 0
 250 605 254 616 258 621 c 0
 261 621 266 620 273 618 c 0
 274 618 276 618 280 618 c 1
 271 582 267 556 267 539 c 0
 267 528 269 513 273 492 c 0
 278 472 280 457 280 446 c 1
 275 443 269 442 261 442 c 0
EndSplineSet
Validated: 2097189
EndChar

StartChar: R
Encoding: 82 82 18
Width: 1041
Flags: W
HStem: -339 41<617 673 601 716> -139 34<113.5 133.5 113.5 136.5> 239 36<774.5 776 774.5 796> 554 73<461 498> 557 70 744 41<169 175> 768 37
VStem: 52 44<-88.5 -87> 136 38<299.5 337.5> 451 34 687 37 692 42 964 44<-46 -18.5>
LayerCount: 2
Back
Fore
SplineSet
634 -339 m 0xedd8
 600 -339 568 -334 537 -324 c 0
 522 -319 492 -307 447 -287 c 0
 411 -271 384 -245 366 -210 c 0
 353 -185 342 -149 334 -103 c 1
 228 -127 156 -139 117 -139 c 0
 74 -139 52 -124 52 -95 c 0
 52 -79 59 -53 74 -18 c 0
 107 61 127 143 134 229 c 0
 135 246 136 265 136 285 c 0
 136 390 121 465 92 511 c 0
 41 592 16 643 18 666 c 0
 21 696 41 724 80 750 c 0
 116 774 151 785 183 785 c 0
 212 785 226 774 226 752 c 0
 226 747 225 741 224 735 c 1
 294 782 385 805 496 805 c 0xebe8
 565 805 624 774 673 713 c 0
 719 656 739 598 733 537 c 0
 724 444 697 381 654 348 c 1
 672 341 686 332 695 320 c 0
 700 314 707 300 717 278 c 1
 724 279 734 279 746 278 c 0
 763 276 773 275 776 275 c 0
 838 274 891 249 934 202 c 0
 953 181 971 149 985 108 c 0
 1001 63 1008 19 1008 -24 c 0
 1008 -69 1000 -108 983 -141 c 0
 915 -273 798 -339 634 -339 c 0xedd8
487 204 m 2
 485 169 l 1
 501 174 l 2
 508 173 515 171 522 169 c 0
 529 167 532 163 530 156 c 1
 530 156 512 143 477 116 c 0
 442 90 419 71 410 58 c 0
 391 31 377 -18 367 -89 c 0
 365 -104 367 -123 376 -145 c 0
 383 -163 391 -180 398 -198 c 1
 463 -265 548 -298 654 -298 c 0
 692 -298 729 -293 764 -283 c 0
 795 -274 821 -259 844 -240 c 0
 867 -221 891 -201 913 -181 c 0
 925 -171 936 -149 947 -117 c 0
 958 -84 964 -57 964 -35 c 0
 964 -2 959 36 947 79 c 0
 934 126 918 160 899 180 c 0
 863 220 820 239 772 239 c 1
 773 239 765 240 748 242 c 0
 738 243 730 242 724 239 c 1
 727 204 724 157 715 97 c 0
 705 32 693 -11 680 -34 c 0
 675 -36 670 -38 666 -41 c 2
 662 -44 l 2
 658 -47 655 -48 652 -48 c 0
 647 -48 643 -42 639 -29 c 1
 665 56 681 128 687 188 c 0
 689 213 683 241 668 270 c 0
 651 303 631 320 606 323 c 0
 598 324 590 324 581 324 c 0
 556 324 526 320 493 311 c 0
 464 304 435 296 406 288 c 0
 383 282 364 279 349 279 c 0
 315 279 292 296 281 330 c 0
 271 359 270 385 277 408 c 0
 279 415 284 435 293 467 c 1
 308 372 328 323 353 319 c 1
 378 336 419 347 477 355 c 0
 524 361 568 364 609 362 c 1
 650 389 677 439 690 513 c 0
 691 519 692 526 692 535 c 0xf5d8
 692 584 682 627 661 664 c 0
 650 685 625 707 588 730 c 0
 551 754 522 767 503 768 c 0
 495 769 486 769 477 769 c 0
 429 769 378 760 323 742 c 0
 264 723 214 697 175 664 c 1
 174 675 175 692 179 717 c 0
 180 724 181 729 181 733 c 0
 181 740 178 744 172 744 c 0xebd8
 166 744 147 737 115 724 c 0
 101 718 88 709 75 694 c 0
 62 680 56 669 55 661 c 0
 54 649 62 631 79 607 c 0
 104 573 125 532 142 484 c 0
 163 425 174 367 174 310 c 0
 174 289 173 269 170 249 c 0
 164 212 159 174 153 137 c 0
 147 94 136 58 125 27 c 0
 105 -27 96 -63 96 -80 c 0
 96 -97 105 -105 122 -105 c 0
 145 -105 174 -98 207 -85 c 1
 236 -82 278 -76 333 -68 c 1
 335 -68 l 1
 351 10 l 2
 356 35 368 61 389 84 c 0
 408 105 428 125 447 146 c 1
 450 169 452 186 451 199 c 0
 453 216 460 224 472 224 c 0
 483 224 488 217 487 204 c 2
498 554 m 2xebd8
 498 554 485 555 460 557 c 0xf3d8
 443 559 432 558 425 553 c 0
 412 544 399 536 386 528 c 0
 366 515 355 505 353 498 c 1
 344 501 l 1
 355 539 388 579 442 620 c 0
 448 625 456 627 466 627 c 0
 480 627 493 623 504 615 c 0
 516 607 522 597 522 584 c 0
 522 577 520 571 517 564 c 0
 514 557 507 553 498 554 c 2xebd8
EndSplineSet
Validated: 2097185
EndChar

StartChar: S
Encoding: 83 83 19
Width: 920
Flags: W
HStem: -182 30 -180 28<364.5 440.5> -47 37<606 629.5> -11 41<762.5 806.5> 314 31<215.5 221.5> 791 39<398.5 427.5 371.5 464.5>
VStem: 9 34<123.5 127.5> 109 33<530.5 585.5 530.5 595.5> 816 42<48 111>
LayerCount: 2
Back
Fore
SplineSet
480 305 m 1x9f80
 487 308 496 311 509 316 c 1
 501 326 470 337 417 348 c 1
 438 340 459 326 480 305 c 1x9f80
109 555 m 0
 109 636 123 696 152 733 c 0
 168 754 205 777 260 804 c 0
 295 821 342 830 401 830 c 0
 454 830 508 824 561 811 c 0
 612 799 646 784 662 769 c 0
 693 740 724 718 757 703 c 0
 765 699 773 697 781 697 c 0
 791 697 809 703 834 714 c 0
 851 721 862 720 868 711 c 0
 871 704 871 695 869 682 c 0
 868 676 866 667 864 656 c 0
 859 622 845 585 823 543 c 0
 789 477 754 434 717 418 c 0
 706 413 693 410 680 407 c 1
 732 360 775 304 810 239 c 0
 842 179 858 130 858 92 c 0
 858 85 859 74 862 61 c 0
 865 48 867 38 867 32 c 0
 869 7 856 -5 831 -5 c 0
 828 -5 824 -6 818 -8 c 0
 812 -10 808 -11 805 -11 c 0
 769 -11 753 -11 756 -12 c 1
 736 -11 721 -6 711 2 c 1
 668 -32 633 -48 606 -47 c 1xaf80
 606 -49 l 2
 603 -78 579 -107 534 -137 c 0
 492 -166 456 -180 425 -180 c 0
 409 -180 390 -181 367 -182 c 0x6f80
 352 -183 339 -182 328 -181 c 0
 314 -179 293 -176 265 -170 c 0
 198 -155 140 -123 91 -74 c 0
 36 -21 9 39 9 104 c 0
 9 151 19 198 38 245 c 0
 52 279 75 321 108 372 c 0
 111 377 113 384 112 392 c 0
 111 408 110 415 110 414 c 1
 115 419 121 422 126 422 c 0
 130 422 136 416 144 405 c 0
 149 397 155 389 160 381 c 0
 179 357 202 345 229 345 c 0
 276 345 309 350 326 359 c 1
 344 359 359 358 370 357 c 1
 293 373 235 392 197 414 c 0
 138 448 109 496 109 555 c 0
580 82 m 0
 587 73 596 43 605 -9 c 1
 616 -10 622 -10 624 -10 c 0
 635 -10 650 -1 671 18 c 0
 692 37 705 46 712 46 c 0
 713 46 717 44 724 41 c 0
 739 34 754 30 771 30 c 0x9f80
 784 30 799 32 814 37 c 0
 815 38 816 43 816 53 c 0
 816 102 798 159 763 224 c 0
 689 359 567 457 398 516 c 1
 389 530 385 541 385 550 c 0
 385 559 391 564 402 564 c 0
 423 556 465 536 529 503 c 0
 594 470 635 448 653 435 c 1
 702 449 l 1
 728 464 759 504 794 569 c 0
 798 576 803 593 811 620 c 0
 820 647 824 663 823 668 c 0
 822 670 821 671 820 671 c 0
 817 671 813 669 806 664 c 0
 799 660 795 658 792 658 c 0
 784 656 777 655 770 655 c 0
 749 655 729 663 712 678 c 0
 668 717 626 746 586 764 c 0
 546 782 495 791 434 791 c 0
 363 791 303 780 252 760 c 0
 217 746 187 720 162 679 c 0
 148 657 142 616 142 555 c 0
 142 506 171 467 230 436 c 0
 269 415 316 400 371 392 c 0
 497 372 560 343 560 303 c 0
 560 298 559 294 557 290 c 1
 520 290 484 275 449 246 c 1
 438 247 432 252 432 262 c 0
 432 265 437 272 448 285 c 1
 449 287 l 1
 419 313 385 326 347 326 c 0
 332 326 310 324 281 320 c 0
 252 316 229 314 214 314 c 0
 180 314 152 326 131 350 c 1
 119 334 103 309 84 276 c 1
 57 207 43 159 43 130 c 0
 43 117 46 101 51 82 c 0
 56 67 60 51 64 35 c 0
 68 20 78 0 95 -24 c 0
 125 -67 169 -99 228 -122 c 0
 279 -142 335 -152 394 -152 c 0
 434 -152 472 -141 508 -119 c 0
 549 -94 569 -63 569 -26 c 0
 569 9 560 47 543 90 c 1
 550 96 556 99 561 99 c 0
 568 99 575 93 580 82 c 0
EndSplineSet
Validated: 2097189
EndChar

StartChar: T
Encoding: 84 84 20
Width: 859
Flags: W
HStem: -181 37<371.5 451> -178 34<455.5 466 405 483.5> 231 37<77 91.5> 419 33<545.5 580> 690 122<377.5 384> 716 34<520.5 523.5>
VStem: 557 35<584.5 602.5 584.5 617> 785 30<159 172.5 147.5 184.5>
LayerCount: 2
Back
Fore
SplineSet
815 168 m 0x77
 815 127 800 80 770 26 c 0
 744 -22 718 -57 692 -77 c 0
 663 -105 644 -122 633 -127 c 0
 564 -161 507 -178 460 -178 c 0
 451 -178 439 -179 423 -180 c 0
 407 -181 395 -181 387 -181 c 0xb7
 356 -181 329 -176 305 -164 c 0
 207 -117 157 -45 154 51 c 1
 145 102 144 146 148 183 c 0
 150 196 154 219 162 253 c 1
 130 238 103 231 80 231 c 0
 74 231 68 231 62 232 c 0
 25 238 7 279 7 352 c 0
 7 357 10 375 14 405 c 2
 20 448 l 1
 18 474 29 501 53 528 c 0
 77 555 106 574 139 585 c 0
 144 586 154 592 171 601 c 0
 188 611 198 618 202 623 c 1
 197 660 218 700 264 745 c 0
 311 790 352 812 389 812 c 0
 404 812 412 801 412 779 c 0
 412 769 411 757 408 744 c 2
 406 739 l 2
 411 742 416 743 419 744 c 0
 429 745 437 736 448 720 c 2
 452 714 l 1
 463 721 475 729 487 737 c 0
 499 746 513 750 528 750 c 0xbb
 554 750 572 725 583 676 c 0
 589 648 592 618 592 587 c 0
 592 582 588 565 580 537 c 0
 572 506 566 491 562 491 c 0
 561 491 559 491 558 492 c 0
 556 492 555 492 554 492 c 2
 554 492 553 491 550 489 c 0
 538 480 520 468 496 451 c 0
 487 448 479 444 471 439 c 1
 500 448 530 452 561 452 c 0
 618 452 671 431 721 388 c 0
 772 345 799 296 803 241 c 0
 804 234 806 222 809 206 c 0
 813 190 815 177 815 168 c 0x77
446 419 m 1
 442 428 l 1
 429 419 410 405 383 388 c 1
 391 382 l 1
 392 388 394 391 396 392 c 0
 407 399 423 408 446 419 c 1
785 178 m 0
 785 191 782 208 776 230 c 0
 769 258 764 276 763 283 c 0
 733 329 703 360 673 376 c 1
 638 405 600 419 560 419 c 0
 522 419 495 414 478 405 c 0
 467 401 447 390 419 373 c 0
 391 356 376 347 375 347 c 0
 364 347 358 353 358 366 c 0
 358 385 360 401 365 416 c 1
 400 433 434 451 468 469 c 0
 511 492 539 517 550 542 c 0
 550 547 551 553 553 562 c 0
 556 571 557 577 557 580 c 0
 557 654 550 697 537 709 c 0
 532 713 527 716 520 716 c 0
 515 716 505 713 491 707 c 2
 437 670 l 2
 431 666 424 664 419 664 c 0
 410 664 405 668 405 677 c 0
 405 686 411 694 424 699 c 0
 425 703 426 706 426 707 c 0
 426 712 422 715 415 715 c 0
 410 715 405 711 398 702 c 0
 391 694 386 690 382 690 c 0xbb
 373 690 366 693 360 699 c 0
 361 701 365 711 371 728 c 0
 378 745 381 755 381 758 c 0
 381 761 378 766 373 771 c 1
 366 770 354 765 337 756 c 0
 334 756 332 756 331 757 c 0
 330 758 329 758 328 758 c 0
 323 758 311 748 294 729 c 0
 277 710 266 695 260 684 c 0
 255 675 249 667 244 658 c 0
 238 647 235 638 235 629 c 2
 234 625 l 2
 234 620 237 615 244 608 c 1
 235 600 224 591 211 581 c 1
 183 571 145 554 97 531 c 0
 81 521 68 499 58 466 c 0
 49 437 44 407 45 377 c 2
 46 322 l 2
 47 286 59 268 84 268 c 0
 102 268 125 275 153 289 c 0
 175 300 197 311 219 322 c 1
 219 322 226 327 239 337 c 0
 252 347 260 352 263 352 c 0
 269 352 274 348 278 340 c 0
 282 332 284 325 284 319 c 1
 275 313 263 307 249 300 c 0
 245 297 237 291 224 283 c 0
 211 276 204 272 202 272 c 0
 198 272 192 254 184 217 c 0
 177 181 173 156 173 143 c 0
 173 118 178 85 188 46 c 0
 200 -3 215 -37 232 -57 c 0
 283 -114 325 -143 358 -143 c 0
 359 -143 375 -144 405 -144 c 0
 434 -144 450 -144 451 -144 c 0
 481 -144 515 -137 554 -122 c 0
 593 -107 624 -90 646 -71 c 0
 676 -44 705 -8 734 38 c 0
 768 93 785 140 785 178 c 0
EndSplineSet
Validated: 2097185
EndChar

StartChar: U
Encoding: 85 85 21
Width: 999
Flags: W
HStem: -199 39<630 684> -193 31 -178 35 -175 32 -172 29 766 31<626 676 620.5 680.5> 767 35<344 357.5>
VStem: 3 31<560.5 569.5 557 588.5> 17 37 99 31<426.5 429> 416 34 660 35<-32 -13.5 -34.5 2.5> 911 40<457.5 479.5>
LayerCount: 2
Back
Fore
SplineSet
747 164 m 0x8378
 736 159 725 129 712 76 c 0
 701 28 695 -5 695 -22 c 0
 695 -47 705 -75 726 -106 c 0
 731 -113 733 -124 733 -141 c 0
 733 -175 722 -193 701 -196 c 0
 683 -198 664 -199 643 -199 c 0
 617 -199 584 -197 545 -193 c 0x0d78
 486 -187 454 -185 447 -185 c 0
 433 -184 422 -172 411 -150 c 2
 410 -148 l 1
 395 -161 380 -169 366 -172 c 0x0b78
 347 -176 325 -178 301 -178 c 0x0af8
 287 -178 266 -177 237 -175 c 0x1378
 209 -173 188 -172 174 -172 c 0x2378
 132 -172 95 -142 62 -83 c 0
 32 -30 17 22 17 73 c 0
 17 83 18 92 20 100 c 0
 27 133 37 172 51 217 c 0
 63 255 76 293 88 331 c 0
 95 354 99 384 99 419 c 0
 99 439 97 474 92 525 c 1
 81 524 69 523 58 522 c 0
 43 520 32 521 26 523 c 0
 20 526 15 531 10 540 c 0
 5 549 3 557 3 564 c 0x0b78
 3 613 52 666 149 723 c 0
 238 776 308 802 357 802 c 0
 378 802 395 792 407 771 c 0
 411 765 418 746 430 713 c 1
 495 769 574 797 667 797 c 0x4378
 685 797 706 795 730 793 c 0
 790 787 837 763 872 720 c 0
 897 689 919 642 939 577 c 0
 947 549 951 520 951 490 c 0
 951 425 933 363 897 304 c 0
 860 243 810 196 747 164 c 0x8378
753 760 m 0
 721 764 693 766 668 766 c 0
 584 766 508 738 441 683 c 1
 449 624 452 555 450 475 c 0
 448 389 437 303 419 216 c 0
 399 121 377 64 352 46 c 0
 344 40 338 37 333 38 c 0
 328 39 325 41 324 46 c 0
 323 51 323 54 325 57 c 0
 350 96 373 168 392 274 c 0
 408 362 416 430 416 477 c 0
 416 582 415 648 413 675 c 0
 411 692 405 711 394 732 c 0
 384 753 375 765 368 766 c 0
 364 767 360 767 355 767 c 0x8378
 333 767 289 753 223 723 c 0
 151 691 100 657 68 624 c 0
 45 601 34 579 34 560 c 0
 34 554 41 550 56 548 c 0
 69 546 79 546 86 549 c 1
 83 555 78 564 73 577 c 1
 78 583 83 586 88 586 c 0
 93 586 100 579 109 565 c 0
 115 555 120 546 122 539 c 0
 127 524 130 497 130 458 c 0
 130 395 126 349 117 320 c 0
 105 282 91 244 79 205 c 0
 65 159 57 120 54 87 c 0x4378
 52 64 55 38 62 8 c 0
 71 -27 83 -57 100 -82 c 0
 126 -121 154 -141 185 -141 c 0
 204 -141 232 -142 271 -143 c 0
 310 -144 338 -144 356 -144 c 0
 362 -144 390 -127 440 -91 c 0
 451 -83 460 -78 467 -77 c 1
 470 -84 472 -88 472 -89 c 0
 472 -96 466 -105 454 -114 c 0
 443 -123 437 -129 437 -134 c 0
 437 -150 447 -159 466 -160 c 0x8378
 493 -162 530 -163 575 -162 c 0x0af8
 650 -161 685 -160 682 -160 c 1x0b78
 686 -160 690 -158 695 -153 c 0
 700 -148 701 -142 700 -135 c 0
 699 -134 698 -133 697 -130 c 2
 693 -120 l 2
 673 -70 660 -39 660 -25 c 0
 660 30 672 85 697 140 c 1
 664 125 640 117 624 117 c 0
 621 117 617 120 610 126 c 0
 603 132 599 137 598 141 c 1
 625 151 671 169 732 201 c 0
 853 265 911 358 911 473 c 0
 911 486 910 500 908 513 c 0
 902 565 887 615 863 662 c 0
 832 722 796 755 753 760 c 0
EndSplineSet
Validated: 2097185
EndChar

StartChar: V
Encoding: 86 86 22
Width: 1035
Flags: W
HStem: -189 20 -162 35<527 573.5> 209 35 209 122<702.5 744.5> 752 31
VStem: -5 41<482.5 494.5 477.5 507.5> 959 32<465.5 509.5 450.5 545>
LayerCount: 2
Back
Fore
SplineSet
361 725 m 1xde
 359 725 l 1
 384 734 407 737 428 734 c 0
 440 732 450 723 457 707 c 0
 463 694 469 681 474 668 c 1
 550 745 636 783 731 783 c 0
 792 783 845 767 891 735 c 0
 937 703 966 661 977 610 c 0
 986 568 991 528 991 491 c 0
 991 410 970 345 927 297 c 0
 878 242 804 213 704 209 c 0
 701 209 695 197 685 172 c 0
 679 158 673 141 665 121 c 0
 642 8 623 -88 610 -166 c 1
 595 -163 581 -162 566 -162 c 0
 547 -162 524 -165 499 -170 c 0
 476 -175 454 -179 431 -183 c 0
 408 -187 388 -189 369 -189 c 1
 366 -188 l 2
 362 -187 356 -186 349 -184 c 0
 336 -173 322 -141 306 -89 c 0
 284 -21 254 66 214 172 c 0
 164 307 132 391 120 426 c 1
 107 424 87 424 61 426 c 0
 45 430 30 438 16 450 c 0
 2 463 -5 476 -5 489 c 0
 -5 526 53 575 170 638 c 0
 266 690 330 719 361 725 c 1xde
717 752 m 0
 625 748 547 710 483 636 c 1
 502 581 528 495 560 378 c 1
 548 358 513 299 455 202 c 0
 447 188 441 179 436 176 c 0
 431 176 423 180 410 188 c 1
 415 203 435 238 471 293 c 0
 504 344 521 370 521 371 c 0
 521 378 515 407 501 457 c 2
 479 538 l 2
 449 650 427 707 401 707 c 0
 386 707 343 689 273 653 c 0
 199 615 139 580 93 547 c 0
 55 520 36 500 36 489 c 0
 36 466 59 455 105 454 c 1
 98 465 95 473 95 478 c 0
 95 482 97 486 102 489 c 0
 107 493 112 495 117 495 c 0
 120 495 122 494 124 493 c 0
 145 474 213 298 330 -37 c 0
 335 -56 342 -79 352 -105 c 0
 366 -140 376 -158 383 -157 c 0
 401 -155 427 -149 461 -140 c 0
 492 -131 517 -127 537 -127 c 0
 553 -127 570 -129 587 -134 c 1
 633 102 l 2
 639 132 654 176 679 234 c 0
 707 299 728 331 742 331 c 0
 747 331 751 328 756 322 c 1
 748 309 740 297 733 284 c 0
 724 269 718 255 716 244 c 1xee
 802 252 864 277 902 318 c 0
 940 360 959 423 959 508 c 0
 959 582 937 642 892 688 c 0
 848 734 790 755 717 752 c 0
EndSplineSet
Validated: 2097185
EndChar

StartChar: W
Encoding: 87 87 23
Width: 1443
Flags: W
HStem: -166 31<563.5 587> 164 35 164 124<1117.5 1153.5> 702 34
VStem: -5 41<482.5 494.5 477.5 507.5> 1374 32<421 464.5 405.5 505>
LayerCount: 2
Back
Fore
SplineSet
719 699 m 2xbc
 718 698 l 2
 721 699 731 706 747 720 c 0
 761 732 775 737 788 735 c 0
 801 733 819 717 841 685 c 0
 856 663 870 641 885 619 c 1
 962 697 1050 736 1148 736 c 0
 1208 736 1261 720 1307 688 c 0
 1353 657 1381 616 1392 565 c 0
 1401 523 1406 483 1406 446 c 0
 1406 365 1384 301 1342 253 c 0
 1293 198 1219 168 1119 164 c 0
 1116 164 1110 152 1100 128 c 0
 1094 114 1088 97 1080 77 c 0
 1057 -37 1039 -133 1026 -210 c 1
 1011 -208 996 -207 981 -207 c 0
 962 -207 940 -209 916 -214 c 0
 892 -219 869 -224 846 -228 c 0
 808 -235 781 -235 765 -228 c 1
 752 -217 737 -185 721 -133 c 0
 711 -100 704 -80 702 -73 c 0
 695 -50 691 -29 690 -12 c 0
 689 5 680 38 663 85 c 1
 656 54 650 14 643 -35 c 0
 634 -100 628 -145 624 -170 c 1
 608 -167 592 -166 575 -166 c 0
 552 -166 517 -170 471 -178 c 0
 425 -185 390 -189 367 -189 c 1
 362 -183 354 -176 344 -168 c 0
 332 -158 316 -121 296 -59 c 0
 274 8 246 90 209 187 c 0
 163 308 133 388 120 426 c 1
 107 424 87 424 61 426 c 0
 45 430 30 438 16 450 c 0
 2 463 -5 476 -5 489 c 0
 -5 526 53 575 170 638 c 0
 266 690 330 719 361 725 c 1
 359 725 l 1
 384 734 407 737 428 734 c 0
 443 731 463 698 487 633 c 0
 504 587 518 541 529 495 c 1
 568 544 609 590 651 634 c 0
 690 675 712 697 719 699 c 2xbc
1293 656 m 0
 1253 690 1200 705 1132 702 c 0
 1045 698 968 659 902 583 c 1
 919 528 943 443 973 326 c 1
 962 308 938 269 902 209 c 0
 877 168 860 142 851 131 c 1
 846 132 838 136 825 144 c 1
 830 158 851 193 886 248 c 0
 919 300 936 326 936 327 c 0
 936 334 929 362 916 412 c 2
 895 494 l 2
 887 525 870 564 844 614 c 0
 814 670 792 698 775 698 c 0
 761 698 704 642 604 531 c 0
 505 420 450 352 439 326 c 0
 432 315 424 303 415 291 c 0
 407 286 403 290 403 301 c 0
 403 326 435 379 498 459 c 0
 498 460 491 487 479 538 c 0
 452 651 427 707 401 707 c 0
 386 707 343 689 273 653 c 0
 199 615 139 580 93 547 c 0
 55 520 36 500 36 489 c 0
 36 466 59 455 105 454 c 1
 98 465 95 473 95 478 c 0
 95 490 100 496 111 496 c 0
 113 496 115 495 118 493 c 0
 138 474 209 293 328 -53 c 0
 333 -67 339 -88 351 -113 c 0
 365 -143 376 -158 383 -157 c 0
 413 -150 481 -143 587 -135 c 1
 633 102 l 2
 639 132 654 176 679 234 c 0
 707 299 728 331 742 331 c 0
 747 331 751 328 756 322 c 1
 737 285 722 258 714 240 c 0
 700 209 689 180 682 153 c 1
 703 129 724 51 745 -82 c 0
 750 -102 758 -125 768 -150 c 0
 781 -185 791 -202 798 -201 c 0
 817 -200 842 -193 875 -183 c 0
 905 -173 930 -169 949 -169 c 0
 964 -169 979 -171 996 -175 c 1
 1041 57 l 2
 1047 88 1062 132 1086 190 c 0
 1114 256 1135 288 1149 288 c 0
 1158 288 1165 284 1171 277 c 1
 1163 264 1155 252 1148 240 c 0
 1139 225 1134 211 1131 199 c 1xdc
 1217 207 1279 232 1317 274 c 0
 1355 316 1374 379 1374 463 c 0
 1374 547 1347 611 1293 656 c 0
EndSplineSet
Validated: 2097185
EndChar

StartChar: X
Encoding: 88 88 24
Width: 981
Flags: W
HStem: -195 30<547.5 714.5> -193 28<686 686> 103 20<73.5 93.5> 103 24 255 30<757.5 775.5> 728 29<570.5 626> 774 20G<275 288>
VStem: 4 28 88 28<615.5 629 614.5 636.5> 312 35<140.5 156> 911 34<53 105>
LayerCount: 2
Back
Fore
SplineSet
686 -193 m 0xafe0
 665 -194 646 -195 629 -195 c 0x6fe0
 466 -195 369 -128 338 7 c 0
 321 81 312 129 312 152 c 0
 312 160 313 168 314 177 c 1
 307 165 296 147 280 123 c 0
 274 115 269 111 265 110 c 0
 231 105 154 103 33 103 c 0
 27 103 21 106 14 113 c 0
 7 120 4 125 4 129 c 0
 4 164 70 258 201 411 c 1
 174 438 149 472 126 514 c 0
 100 561 88 600 88 631 c 0
 88 642 116 672 173 721 c 0
 230 770 267 794 283 794 c 0
 293 794 311 777 339 742 c 0
 361 714 381 687 396 661 c 1
 419 693 442 716 463 730 c 0
 490 748 521 757 556 757 c 0
 632 757 661 757 644 757 c 1
 679 756 708 752 731 746 c 0
 747 742 755 735 755 725 c 0
 755 716 748 706 733 695 c 0
 678 656 622 601 567 532 c 0
 562 526 553 511 540 488 c 0
 524 459 516 440 516 431 c 0
 516 423 530 398 557 357 c 0
 584 316 602 294 610 289 c 1
 620 297 636 301 659 301 c 0
 668 301 681 291 697 272 c 1
 722 281 746 285 769 285 c 0
 826 285 871 260 905 210 c 0
 932 170 945 128 945 83 c 0
 945 10 920 -53 869 -106 c 0
 819 -159 758 -188 686 -193 c 0xafe0
496 469 m 2
 498 466 l 1
 519 513 550 560 593 605 c 0
 608 621 649 660 717 722 c 1
 690 726 651 728 601 728 c 0
 540 728 503 725 492 718 c 0
 445 691 411 648 389 591 c 0
 387 586 382 586 374 591 c 0
 371 592 367 596 360 601 c 1
 364 609 370 621 378 636 c 1
 376 645 361 668 333 706 c 0
 305 744 288 765 282 768 c 1
 269 763 239 739 191 699 c 0
 141 657 116 633 116 625 c 0
 116 604 129 571 155 525 c 0
 181 480 204 449 224 433 c 1
 265 476 l 2
 268 477 272 477 277 476 c 0
 284 475 287 472 287 465 c 0
 286 463 283 459 278 453 c 2
 258 430 l 2
 235 404 213 379 192 354 c 0
 85 229 31 154 32 131 c 0
 33 126 53 123 94 123 c 0
 123 123 158 125 199 127 c 0x9fe0
 236 129 255 130 256 131 c 0
 257 132 267 150 286 183 c 0
 300 208 311 223 319 229 c 1
 323 274 342 311 376 341 c 0
 380 343 384 344 388 344 c 0
 396 344 400 339 400 330 c 1
 365 289 347 234 347 164 c 0
 347 86 366 14 403 -52 c 0
 435 -109 476 -143 525 -156 c 0
 546 -162 600 -165 687 -165 c 0
 742 -165 794 -137 842 -82 c 0
 888 -29 911 25 911 81 c 0
 911 129 896 170 866 204 c 0
 837 238 799 255 752 255 c 0
 703 255 667 234 642 193 c 1
 633 196 625 199 620 202 c 1
 624 219 641 237 670 257 c 1
 659 270 651 276 644 274 c 0
 625 268 608 257 593 242 c 0
 579 227 571 220 569 220 c 0
 564 220 559 224 553 231 c 1
 558 246 569 260 584 272 c 1
 565 293 541 326 512 371 c 0
 481 420 465 452 465 465 c 0
 465 468 467 472 471 475 c 0
 475 478 478 480 481 480 c 0
 486 480 491 476 496 469 c 2
EndSplineSet
Validated: 2097189
EndChar

StartChar: Y
Encoding: 89 89 25
Width: 743
Flags: W
HStem: -172 35<269 294.5> 298 206<487.5 515.5> 704 27<363.5 368> 747 32 749 30
VStem: 21 28<31 72.5> 623 36<140 142> 633 26<182.5 209.5 132.5 210.5> 688 24<687.5 719>
LayerCount: 2
Back
Fore
SplineSet
683 749 m 1xed80
 654 748 626 748 597 747 c 0xed80
 566 746 537 740 511 730 c 1
 508 710 503 684 498 652 c 0
 495 635 491 611 485 581 c 0
 480 557 474 545 466 545 c 0
 456 545 451 555 451 575 c 0
 451 576 452 588 454 609 c 0
 451 615 446 620 437 625 c 0
 426 630 414 641 400 659 c 0
 390 673 380 687 369 701 c 0
 369 702 369 703 368 704 c 0
 359 704 333 693 290 670 c 0
 256 652 230 637 213 626 c 1
 224 585 246 540 281 491 c 0
 316 442 350 404 385 377 c 0
 387 376 395 374 410 373 c 1
 425 400 440 414 456 414 c 0
 466 412 471 408 471 401 c 0
 471 396 468 393 461 392 c 0
 448 387 440 378 437 367 c 1
 453 362 469 353 487 343 c 0
 510 329 522 318 522 307 c 0
 522 301 519 298 512 298 c 0
 505 298 502 297 501 295 c 1
 468 320 425 338 372 349 c 0
 361 349 353 349 348 350 c 0
 343 350 341 350 342 350 c 1
 326 350 295 343 249 329 c 0
 199 313 153 275 110 214 c 0
 69 156 49 104 49 57 c 0
 49 5 65 -40 98 -78 c 0
 132 -118 176 -138 230 -138 c 0
 239 -138 252 -137 269 -137 c 0
 286 -137 299 -137 308 -137 c 0
 324 -137 340 -134 355 -127 c 0
 370 -120 385 -114 400 -108 c 0
 454 -85 502 -52 545 -9 c 0
 593 40 619 90 623 140 c 0
 623 144 625 151 628 162 c 0
 631 173 633 180 633 185 c 0xf680
 633 236 623 286 604 337 c 0
 582 394 553 435 515 461 c 0
 492 477 480 487 480 490 c 0
 480 499 484 504 491 504 c 0
 512 504 541 481 576 436 c 1
 615 501 640 545 650 566 c 0
 675 619 688 666 688 709 c 0
 688 729 686 742 683 749 c 1xed80
609 437 m 0
 597 423 591 415 591 412 c 1
 591 413 599 400 614 371 c 0
 644 314 659 247 659 172 c 0
 659 93 623 21 550 -44 c 0
 491 -97 419 -136 334 -162 c 0
 313 -168 299 -172 290 -172 c 0
 232 -172 186 -166 153 -155 c 0
 117 -143 86 -117 59 -77 c 0
 34 -39 21 -2 21 33 c 0
 21 112 60 199 139 295 c 0
 155 314 183 333 222 350 c 0
 256 365 288 376 319 381 c 0
 320 381 323 381 328 380 c 0
 333 379 337 379 338 379 c 0
 339 379 341 379 344 379 c 1
 269 434 217 509 187 604 c 0
 183 617 181 624 181 625 c 0
 181 640 220 666 298 705 c 0
 313 710 332 718 357 731 c 1
 356 731 361 731 374 731 c 0
 377 731 406 702 461 644 c 1
 466 664 470 684 474 704 c 0
 480 732 488 748 497 753 c 0
 500 755 516 760 545 767 c 0
 575 774 594 778 602 778 c 0
 605 778 638 778 699 779 c 0
 706 779 710 770 711 753 c 0
 712 746 712 739 712 730 c 0
 712 617 678 520 609 437 c 0
EndSplineSet
Validated: 2097189
EndChar

StartChar: Z
Encoding: 90 90 26
Width: 1035
Flags: W
HStem: -186 20 -170 47<821 857> -152 40 299 34 309 31 657 36<879 885 879 885.5> 699 34<644.5 686.5> 720 34<805.5 817> 761 30<319.5 335 296.5 358.5>
VStem: 26 38<523.5 559.5 523.5 564.5> 66 42<-55.5 -27.5 -55.5 -26.5> 821 42<-123 -93.5> 831 40<711 717.5> 900 31<636.5 645.5> 953 40<148 201.5>
LayerCount: 2
Back
Fore
SplineSet
169 189 m 0xaef6
 159 189 154 194 154 205 c 0
 154 208 156 214 160 223 c 0
 165 232 167 237 167 239 c 0
 167 290 155 325 131 344 c 0
 107 363 90 377 80 387 c 0
 65 402 52 421 39 444 c 0
 38 445 35 455 31 472 c 0
 28 490 26 501 26 504 c 0
 26 625 98 716 241 777 c 0
 253 786 278 791 315 791 c 0
 355 791 402 786 455 777 c 0
 474 774 506 768 551 759 c 0
 557 758 573 753 600 744 c 0
 621 737 638 733 651 733 c 0
 687 733 718 736 744 742 c 0
 771 749 785 752 786 752 c 0
 788 752 791 752 796 753 c 0
 801 754 804 754 807 754 c 0xadee
 850 754 871 740 871 713 c 0
 871 709 868 701 863 690 c 1x4eee
 871 692 877 693 881 693 c 0
 889 693 899 687 912 675 c 0
 925 664 931 655 931 648 c 0
 931 625 921 599 898 573 c 0
 879 551 858 532 839 511 c 0
 804 473 751 411 680 328 c 1
 688 329 700 330 715 333 c 0
 747 339 765 342 770 342 c 0
 792 342 811 341 827 340 c 0xaef6
 843 339 851 339 851 339 c 2
 862 338 877 336 895 329 c 0
 909 324 923 318 937 313 c 0
 955 306 969 288 980 258 c 0
 989 234 993 212 993 191 c 0
 993 164 988 138 977 113 c 0
 969 94 953 67 929 31 c 0
 915 10 901 -11 887 -33 c 0
 871 -59 863 -83 863 -104 c 0
 863 -111 864 -121 867 -133 c 0
 870 -144 871 -151 871 -153 c 0xb6f6
 871 -164 864 -170 850 -170 c 0
 815 -170 753 -164 662 -152 c 1xadee
 454 -153 l 2
 420 -153 357 -160 265 -174 c 2
 186 -186 l 1
 159 -183 132 -165 105 -132 c 0
 79 -99 66 -69 66 -42 c 0
 66 -11 83 32 117 86 c 0
 146 132 181 176 222 219 c 1
 195 199 178 189 169 189 c 0xaef6
423 56 m 0
 442 83 488 142 560 232 c 0
 630 320 682 384 715 425 c 0
 725 438 736 457 755 477 c 0
 850 579 900 632 900 640 c 0
 900 651 893 657 878 657 c 0
 861 657 842 649 824 631 c 0
 814 622 805 617 794 617 c 0
 792 617 788 619 782 622 c 0
 776 626 773 630 773 634 c 0
 773 639 783 651 802 670 c 0
 821 689 831 705 831 716 c 0
 831 719 824 720 810 720 c 0
 795 720 773 716 744 709 c 0
 715 702 694 699 679 699 c 0x4ef6
 678 699 672 700 663 700 c 0
 653 700 648 700 647 700 c 0
 627 700 587 709 526 727 c 0
 449 750 384 761 333 761 c 0
 306 761 279 757 253 749 c 0
 215 737 176 712 137 675 c 0
 88 629 64 583 64 536 c 0
 64 511 65 496 66 490 c 0
 67 479 73 464 83 445 c 0
 89 434 104 415 131 387 c 0
 133 386 145 373 166 349 c 0
 175 339 181 331 184 326 c 0
 196 304 200 279 195 251 c 1
 194 248 l 1
 219 261 245 282 271 314 c 0
 293 340 314 368 335 395 c 0
 338 398 344 400 354 402 c 1
 364 398 369 391 369 381 c 0
 369 364 350 339 313 306 c 1
 370 321 419 330 460 333 c 0
 507 336 530 331 530 317 c 0
 530 305 520 299 499 299 c 0
 459 299 426 297 401 292 c 0
 384 289 361 285 333 280 c 1
 322 269 307 255 286 236 c 0
 248 192 209 149 172 105 c 0
 128 51 108 -2 108 -53 c 0
 108 -58 116 -77 133 -109 c 0
 135 -113 141 -121 151 -133 c 0
 162 -145 168 -151 170 -151 c 0
 189 -151 213 -149 242 -143 c 0
 285 -135 308 -130 313 -129 c 0
 326 -127 346 -121 373 -120 c 2
 575 -112 l 2
 621 -110 678 -112 745 -117 c 2
 821 -123 l 1xb6f6
 822 -74 845 -22 892 35 c 0
 919 68 940 105 953 148 c 0
 952 153 952 162 953 176 c 0
 949 215 936 242 916 260 c 0
 905 270 894 278 881 283 c 0
 840 300 810 309 792 309 c 0
 712 309 648 283 599 230 c 0
 587 217 563 187 526 138 c 0
 490 90 455 48 422 12 c 1
 413 19 408 24 408 27 c 0
 408 32 413 41 423 56 c 0
EndSplineSet
Validated: 2097185
EndChar

StartChar: bracketleft
Encoding: 91 91 27
Width: 424
Flags: W
HStem: -185 32<121 133 133 140.5 121 142> -114 27<261.5 288.5> 23 31<207.5 209> 718 30<308.5 310> 764 29<214 220.5>
VStem: 34 31<-95 -93.5> 81 31<660 669.5 650 678.5> 340 34<686 687.5>
LayerCount: 2
Back
Fore
SplineSet
193 56 m 2
 192 49 l 1
 197 52 204 54 211 54 c 0
 226 54 243 47 263 35 c 0
 274 28 285 14 297 -6 c 0
 307 -24 315 -41 318 -56 c 0
 323 -79 329 -96 336 -108 c 0
 337 -111 338 -113 338 -115 c 0
 338 -124 334 -129 325 -129 c 0
 320 -129 315 -127 308 -122 c 0
 301 -117 293 -114 284 -114 c 0
 266 -114 242 -126 211 -150 c 0
 181 -173 154 -185 130 -185 c 0
 99 -185 81 -180 74 -171 c 0
 65 -160 56 -149 47 -138 c 0
 38 -127 34 -113 34 -96 c 0
 34 -91 36 -80 40 -63 c 0
 45 -45 47 -35 48 -33 c 0
 75 12 96 61 111 112 c 0
 120 144 130 190 139 250 c 0
 151 329 156 407 152 486 c 0
 151 503 147 519 141 533 c 0
 133 546 125 560 117 575 c 0
 109 590 101 604 93 619 c 0
 85 634 81 651 81 669 c 0
 81 688 87 706 100 725 c 0
 105 732 118 747 139 771 c 0
 140 772 152 776 174 783 c 0
 197 790 211 793 217 793 c 0
 233 793 250 785 268 770 c 0
 286 755 302 748 315 748 c 0
 320 748 326 749 333 752 c 2
 340 755 l 2
 343 756 346 757 347 757 c 0
 355 757 362 748 368 731 c 0
 372 718 374 707 374 699 c 0
 374 673 365 645 348 615 c 0
 331 586 309 561 280 541 c 0
 274 537 265 534 253 532 c 1
 254 487 247 411 235 302 c 0
 233 282 231 252 224 213 c 0
 218 178 203 127 193 56 c 2
247 559 m 1
 270 567 291 585 310 613 c 0
 330 641 340 665 340 685 c 0
 340 690 340 697 339 705 c 0
 338 714 338 719 338 722 c 1
 335 722 331 721 324 720 c 0
 317 719 312 718 308 718 c 0
 296 718 281 726 263 741 c 0
 245 756 228 764 213 764 c 0
 183 764 159 753 140 731 c 0
 121 709 112 684 112 655 c 0
 112 645 117 632 128 615 c 0
 136 603 145 591 153 578 c 0
 181 532 196 473 191 403 c 0
 187 343 178 284 171 225 c 0
 163 154 147 96 123 53 c 0
 111 31 97 9 85 -14 c 0
 71 -41 65 -66 65 -88 c 0
 65 -102 71 -116 83 -131 c 0
 95 -146 108 -153 121 -153 c 2
 133 -153 l 2
 148 -153 172 -142 205 -120 c 0
 238 -98 258 -87 265 -87 c 0
 282 -87 294 -88 300 -89 c 1
 293 -58 285 -37 277 -23 c 0
 263 1 246 14 223 17 c 0
 216 21 211 23 207 23 c 0
 194 23 187 16 184 1 c 0
 181 -14 176 -21 169 -21 c 1
 158 -12 152 -7 152 -6 c 0
 152 45 162 117 181 211 c 0
 203 317 215 390 218 430 c 0
 222 475 224 500 223 505 c 0
 223 510 220 527 214 558 c 0
 215 563 217 567 218 571 c 0
 220 576 224 578 231 578 c 0
 239 578 244 572 247 559 c 1
EndSplineSet
Validated: 2097185
EndChar

StartChar: bracketright
Encoding: 93 93 28
Width: 411
Flags: W
HStem: -185 20 578 186<172.5 209.5> 773 20G<183 194>
VStem: 67 228<650 687.5 650 755> 107 236<4.29497e+09 4.29497e+09>
LayerCount: 2
Back
Fore
SplineSet
216 49 m 1xf0
 215 56 l 2
 205 127 190 178 184 213 c 0
 177 252 174 282 172 302 c 0
 160 411 154 487 155 532 c 1
 143 534 133 537 127 541 c 0
 98 561 76 586 59 615 c 0
 42 645 34 673 34 699 c 0
 34 707 36 718 40 731 c 0
 45 748 52 757 60 757 c 0
 62 757 64 756 67 755 c 2
 75 752 l 2
 82 749 88 748 93 748 c 0
 106 748 122 755 140 770 c 0
 158 785 175 793 191 793 c 0
 197 793 211 790 233 783 c 0
 255 776 267 772 269 771 c 0
 290 747 304 732 308 725 c 0
 320 706 326 688 326 669 c 0
 326 651 322 634 314 619 c 0
 306 604 298 590 290 575 c 0
 282 560 274 546 267 532 c 0
 260 519 257 503 256 486 c 0
 252 407 257 329 269 250 c 0
 279 190 287 144 296 112 c 0
 310 61 332 12 359 -33 c 0
 360 -35 362 -45 367 -63 c 0
 372 -80 374 -91 374 -96 c 0
 374 -113 370 -127 361 -138 c 0
 352 -149 343 -160 334 -171 c 0
 327 -180 308 -185 277 -185 c 0
 254 -185 227 -173 196 -150 c 0
 166 -126 142 -114 123 -114 c 0
 114 -114 107 -117 100 -122 c 0
 93 -127 88 -129 83 -129 c 0
 74 -129 70 -124 70 -115 c 0
 70 -113 71 -111 72 -108 c 0
 78 -96 84 -79 89 -56 c 0
 92 -41 99 -24 110 -6 c 0
 122 15 134 28 145 35 c 0
 165 47 181 54 196 54 c 0
 203 54 210 52 216 49 c 1xf0
161 559 m 1
 163 572 168 578 177 578 c 0
 184 578 188 576 189 571 c 0
 190 567 192 563 193 558 c 0
 187 527 184 510 184 505 c 0
 184 500 185 475 189 430 c 0
 192 390 205 317 227 211 c 0
 246 117 255 45 255 -6 c 0
 255 -7 250 -12 239 -21 c 1
 232 -21 227 -14 224 1 c 0
 221 16 213 23 200 23 c 0
 196 23 191 21 184 17 c 0
 161 14 143 1 130 -23 c 0
 123 -36 115 -58 107 -89 c 1
 113 -88 125 -87 143 -87 c 0
 149 -87 169 -98 202 -120 c 0
 235 -142 259 -153 274 -153 c 2
 286 -153 l 2
 299 -153 312 -146 324 -131 c 0
 337 -116 343 -102 343 -88 c 0xe8
 343 -66 337 -41 323 -14 c 0
 311 9 297 31 285 53 c 0
 261 96 245 154 237 225 c 0
 230 284 221 343 217 403 c 0
 212 473 227 532 255 578 c 0
 263 591 272 603 280 615 c 0
 291 631 295 645 295 655 c 0
 295 684 287 709 269 730 c 0
 250 753 225 764 194 764 c 0
 179 764 163 756 144 741 c 0
 126 726 111 718 99 718 c 0
 95 718 90 719 83 720 c 0
 76 721 72 722 70 722 c 1
 70 719 69 714 68 705 c 0
 67 697 67 690 67 685 c 0
 67 665 77 641 96 613 c 0
 116 585 138 567 161 559 c 1
EndSplineSet
Validated: 2097185
EndChar

StartChar: exclam
Encoding: 33 33 29
Width: 308
Flags: W
HStem: -178 26<147 148 148 157 140 175.5> -19 33<129 145> 25 37<146.5 158.5 139.5 170> 736 35<113.5 114.5 101 122.5>
VStem: 44 42<-98 -85 -98 -81> 83 35<147.5 170> 86 34 89 27 166 30<242.5 244 244 264.5> 179 33 220 28<-87 -71.5>
LayerCount: 2
Back
Fore
SplineSet
308 676 m 0xf9a0
 308 673 302 658 293 633 c 0
 284 608 278 592 275 586 c 0
 245 523 219 427 196 297 c 1
 196 259 196 241 196 244 c 1
 198 233 203 194 212 125 c 1xf9a0
 213 58 192 25 148 25 c 0
 145 25 142 26 137 28 c 0
 132 31 129 32 127 32 c 0
 113 32 102 50 93 86 c 0
 86 113 83 137 83 158 c 0
 83 170 84 188 86 212 c 0xf460
 88 236 89 254 89 267 c 2
 69 481 l 2
 69 490 69 504 67 523 c 0
 64 550 61 577 58 604 c 0
 55 631 54 657 55 680 c 0
 56 707 59 726 65 739 c 0
 75 760 90 771 112 771 c 0
 117 771 122 771 127 770 c 0
 154 761 188 751 228 741 c 1
 246 741 268 751 293 771 c 2
 298 775 l 2
 301 777 304 778 308 778 c 0
 313 743 313 709 308 676 c 0xf9a0
167 -178 m 0
 127 -178 109 -178 112 -179 c 1
 95 -176 81 -168 70 -155 c 0
 53 -134 44 -114 44 -94 c 0
 44 -68 54 -44 73 -21 c 0
 93 2 116 14 142 14 c 0
 166 14 189 5 211 -12 c 0
 235 -31 248 -52 248 -76 c 0
 248 -98 239 -121 220 -144 c 0
 202 -167 184 -178 167 -178 c 0
239 711 m 0
 217 711 183 718 136 732 c 0
 128 734 123 736 122 736 c 0
 105 736 95 723 90 698 c 0
 88 689 87 668 87 635 c 0
 87 626 91 588 100 521 c 0
 109 448 115 406 116 395 c 0
 119 360 127 304 122 227 c 2
 122 227 121 219 120 204 c 0xf9a0
 119 189 118 176 118 164 c 0xf460
 117 96 128 62 151 62 c 0
 166 62 175 72 179 91 c 0
 179 94 180 109 180 138 c 0
 180 151 178 169 173 193 c 0
 168 218 166 236 166 249 c 0xf2a0
 166 280 173 334 188 410 c 0
 202 483 212 525 218 536 c 0
 237 585 249 616 253 629 c 0
 266 666 274 697 278 724 c 1
 257 715 244 711 239 711 c 0
134 -19 m 0
 119 -19 107 -29 97 -48 c 0
 89 -63 86 -78 86 -92 c 0
 86 -104 92 -117 103 -131 c 0
 115 -145 127 -152 140 -152 c 2
 148 -152 l 2
 166 -152 182 -145 197 -131 c 0
 212 -116 220 -100 220 -82 c 0
 220 -61 210 -44 191 -33 c 0
 175 -24 156 -19 134 -19 c 0
EndSplineSet
Validated: 2097189
EndChar

StartChar: comma
Encoding: 44 44 30
Width: 393
Flags: W
HStem: -176 49<112 132> 47 49<165.5 224.5>
VStem: 35 41<-77 -43.5 -82.5 -43> 266 44<-90.5 -55.5 -102.5 -44.5>
LayerCount: 2
Back
Fore
SplineSet
206 -244 m 0
 189 -255 168 -260 145 -260 c 1
 145 -251 147 -242 151 -232 c 0
 156 -222 158 -215 158 -212 c 0
 158 -201 156 -188 152 -174 c 1
 145 -175 137 -176 127 -176 c 0
 96 -176 72 -163 55 -138 c 0
 42 -117 35 -92 35 -62 c 0
 35 -24 44 4 60 24 c 0
 70 36 80 50 91 63 c 0
 102 76 115 86 130 91 c 0
 140 94 168 96 214 96 c 0
 235 96 256 82 276 53 c 0
 293 28 303 3 307 -21 c 0
 309 -32 310 -46 310 -65 c 0
 310 -140 275 -200 206 -244 c 0
240 18 m 0
 234 24 228 32 219 42 c 0
 213 45 200 47 181 47 c 0
 150 47 124 37 105 18 c 0
 86 -1 76 -27 76 -60 c 0
 76 -105 94 -127 130 -127 c 0
 145 -127 156 -126 161 -124 c 0
 174 -119 185 -113 192 -105 c 1
 213 -131 l 1
 213 -142 209 -149 200 -153 c 2
 196 -155 l 1
 198 -163 l 2
 200 -172 202 -180 201 -187 c 1
 244 -160 266 -119 266 -62 c 0
 266 -27 257 0 240 18 c 0
EndSplineSet
Validated: 2097153
EndChar

StartChar: period
Encoding: 46 46 31
Width: 341
Flags: W
HStem: -194 51<130 134.5> 8 52<149.5 150.5 150 154>
VStem: 21 61<-106.5 -59> 224 49<-69 -54>
LayerCount: 2
Back
Fore
SplineSet
218 -161 m 0
 211 -168 198 -176 177 -183 c 0
 156 -190 140 -194 129 -194 c 0
 100 -194 75 -184 53 -164 c 0
 32 -144 21 -120 21 -93 c 0
 21 -72 28 -46 43 -15 c 0
 58 16 74 36 90 45 c 0
 93 46 103 48 122 54 c 0
 134 58 145 60 154 60 c 0
 191 60 220 50 241 29 c 0
 262 9 273 -19 273 -56 c 0
 273 -86 255 -121 218 -161 c 0
170 6 m 2
 171 6 l 2
 168 5 164 5 160 6 c 2
 154 8 l 2
 153 8 151 8 150 8 c 0
 136 8 121 -1 105 -18 c 0
 90 -35 82 -51 82 -67 c 0
 82 -81 88 -97 100 -116 c 0
 112 -134 124 -143 136 -143 c 0
 155 -143 174 -134 194 -115 c 0
 214 -96 224 -78 224 -60 c 0
 224 -48 218 -34 207 -19 c 0
 196 -4 184 5 170 6 c 2
EndSplineSet
Validated: 2097157
EndChar

StartChar: question
Encoding: 63 63 32
Width: 641
Flags: W
HStem: -138 28<284.5 294.5> -5 34<309.5 316.5 301 331.5> 40 33<286.5 295> 210 27<394.5 404.5> 338 31 714 42<354 413> 716 40 718 38<354 361.5>
VStem: 221 32 253 35<221.5 227.5 210.5 237> 256 33<76.5 78.5> 360 29<-51.5 -39.5 -51.5 -30.5> 420 34<198.5 200.5>
LayerCount: 2
Back
Fore
SplineSet
557 408 m 1xf958
 477 339 l 2
 470 334 453 327 428 317 c 0
 335 279 288 243 288 212 c 0
 288 209 288 207 289 204 c 1xfcb8
 326 226 365 237 408 237 c 0
 439 237 454 226 454 205 c 0
 454 192 448 178 437 161 c 0
 426 144 413 122 398 93 c 0
 394 80 386 67 374 54 c 0
 372 52 358 49 333 45 c 0
 308 42 294 40 291 40 c 0
 282 40 273 43 266 50 c 0
 259 57 256 66 256 75 c 0
 256 82 257 88 259 95 c 1
 247 91 l 2
 240 89 235 88 234 88 c 0
 217 88 201 93 186 103 c 0
 171 114 163 127 159 143 c 0
 152 175 155 208 169 242 c 2
 201 320 l 2
 202 323 205 328 211 337 c 1
 207 338 200 338 191 338 c 0
 180 338 168 332 155 320 c 0
 142 308 134 302 131 302 c 0
 123 302 119 305 119 312 c 0
 119 313 122 320 129 333 c 0
 132 340 134 346 134 351 c 0
 134 362 130 376 121 393 c 0
 114 406 108 419 102 432 c 0
 97 445 90 462 81 485 c 1
 77 557 102 620 156 675 c 0
 178 698 212 717 257 733 c 0
 299 748 337 756 371 756 c 0
 424 756 475 736 522 696 c 0
 573 653 598 602 598 543 c 0
 598 510 584 465 557 408 c 1xf958
336 -130 m 0
 317 -135 301 -138 288 -138 c 0xf9b8
 269 -138 251 -128 236 -107 c 0
 227 -95 222 -80 221 -63 c 0xf958
 218 -32 226 -11 245 2 c 0
 264 20 287 29 315 29 c 0
 318 29 333 26 360 19 c 0
 369 17 376 7 382 -9 c 0
 387 -22 389 -34 389 -45 c 0
 389 -58 383 -74 372 -93 c 0
 361 -112 349 -124 336 -130 c 0
145 420 m 2
 146 419 l 1
 151 407 158 389 167 365 c 1
 198 372 219 371 231 362 c 1
 237 368 246 380 260 398 c 0
 266 406 276 418 288 434 c 0xf9b8
 302 447 316 461 330 473 c 0
 348 489 364 498 378 501 c 0
 381 498 384 492 389 485 c 1
 384 477 379 473 376 472 c 0
 373 471 370 471 367 470 c 0
 348 457 331 442 317 424 c 0
 303 406 277 369 240 313 c 0
 205 262 188 218 188 182 c 0
 188 147 203 130 234 130 c 0
 252 130 272 134 293 141 c 0
 312 148 331 154 350 161 c 1
 363 157 367 148 362 133 c 1
 335 120 l 2
 304 105 289 91 289 78 c 0xfa58
 289 75 291 73 295 73 c 0
 331 74 353 81 362 95 c 0
 367 108 382 140 413 186 c 2
 419 195 l 2
 419 196 419 196 420 196 c 1
 420 205 412 210 397 210 c 0
 392 210 378 206 354 198 c 0
 330 191 315 185 309 182 c 0
 308 181 303 177 296 170 c 2
 289 163 l 2
 286 160 284 159 281 158 c 0
 274 158 267 168 261 188 c 0
 256 205 253 217 253 226 c 0xfc58
 253 248 267 270 295 293 c 0
 323 316 351 329 378 333 c 0
 385 336 396 341 409 348 c 0
 477 371 521 403 540 444 c 0
 544 453 549 473 556 505 c 0
 562 534 566 551 566 556 c 2
 566 556 557 577 539 619 c 0
 530 632 515 651 494 675 c 0
 470 702 443 715 413 714 c 0
 408 714 398 715 385 716 c 0xf9b8
 372 717 364 718 359 718 c 0xf958
 348 718 313 709 256 692 c 0
 245 689 237 687 231 686 c 0
 226 685 209 670 181 641 c 0
 154 612 137 592 132 581 c 0
 123 562 117 537 117 506 c 0
 117 493 122 477 130 459 c 0
 140 438 144 425 145 420 c 2
317 -5 m 0
 302 -5 288 -9 276 -17 c 0
 261 -27 253 -39 253 -55 c 0xf9b8
 253 -67 257 -79 264 -92 c 0
 271 -104 280 -110 289 -110 c 0xf958
 306 -110 319 -108 328 -104 c 0
 349 -95 360 -74 360 -43 c 0
 360 -18 346 -5 317 -5 c 0
EndSplineSet
Validated: 2097185
EndChar

